<?xml version="1.0" encoding="UTF-8" standalone="no"?>
<!DOCTYPE svg PUBLIC "-//W3C//DTD SVG 1.1//EN"
 "http://www.w3.org/Graphics/SVG/1.1/DTD/svg11.dtd">
<!-- Generated by graphviz version 2.43.0 (0)
 -->
<!-- Title: roo_display::DramRaster&lt; ColorMode, pixel_order, byte_order &gt; Pages: 1 -->
<svg width="151pt" height="291pt"
 viewBox="0.00 0.00 151.00 291.00" xmlns="http://www.w3.org/2000/svg" xmlns:xlink="http://www.w3.org/1999/xlink">
<g id="graph0" class="graph" transform="scale(1 1) rotate(0) translate(4 287)">
<title>roo_display::DramRaster&lt; ColorMode, pixel_order, byte_order &gt;</title>
<!-- Node1 -->
<g id="Node000001" class="node">
<title>Node1</title>
<g id="a_Node000001"><a xlink:title=" ">
<polygon fill="#999999" stroke="#666666" points="143,-41 0,-41 0,0 143,0 143,-41"/>
<text text-anchor="start" x="8" y="-29" font-family="Helvetica,sans-Serif" font-size="10.00">roo_display::DramRaster</text>
<text text-anchor="start" x="8" y="-18" font-family="Helvetica,sans-Serif" font-size="10.00">&lt; ColorMode, pixel_order,</text>
<text text-anchor="middle" x="71.5" y="-7" font-family="Helvetica,sans-Serif" font-size="10.00"> byte_order &gt;</text>
</a>
</g>
</g>
<!-- Node2 -->
<g id="Node000002" class="node">
<title>Node2</title>
<g id="a_Node000002"><a xlink:href="classroo__display_1_1Raster.html" target="_top" xlink:title=" ">
<polygon fill="white" stroke="#666666" points="143,-118 0,-118 0,-77 143,-77 143,-118"/>
<text text-anchor="start" x="8" y="-106" font-family="Helvetica,sans-Serif" font-size="10.00">roo_display::Raster</text>
<text text-anchor="start" x="8" y="-95" font-family="Helvetica,sans-Serif" font-size="10.00">&lt; PtrTypeT, ColorModeT,</text>
<text text-anchor="middle" x="71.5" y="-84" font-family="Helvetica,sans-Serif" font-size="10.00"> pixel_order, byte_order &gt;</text>
</a>
</g>
</g>
<!-- Node2&#45;&gt;Node1 -->
<g id="edge1_Node000001_Node000002" class="edge">
<title>Node2&#45;&gt;Node1</title>
<g id="a_edge1_Node000001_Node000002"><a xlink:title=" ">
<path fill="none" stroke="#63b8ff" d="M71.5,-66.69C71.5,-58.08 71.5,-48.9 71.5,-41.07"/>
<polygon fill="#63b8ff" stroke="#63b8ff" points="68,-66.79 71.5,-76.79 75,-66.79 68,-66.79"/>
</a>
</g>
</g>
<!-- Node3 -->
<g id="Node000003" class="node">
<title>Node3</title>
<g id="a_Node000003"><a xlink:href="classroo__display_1_1Rasterizable.html" target="_top" xlink:title=" ">
<polygon fill="white" stroke="#666666" points="141,-173 2,-173 2,-154 141,-154 141,-173"/>
<text text-anchor="middle" x="71.5" y="-161" font-family="Helvetica,sans-Serif" font-size="10.00">roo_display::Rasterizable</text>
</a>
</g>
</g>
<!-- Node3&#45;&gt;Node2 -->
<g id="edge2_Node000002_Node000003" class="edge">
<title>Node3&#45;&gt;Node2</title>
<g id="a_edge2_Node000002_Node000003"><a xlink:title=" ">
<path fill="none" stroke="#63b8ff" d="M71.5,-143.63C71.5,-135.56 71.5,-126.15 71.5,-118.01"/>
<polygon fill="#63b8ff" stroke="#63b8ff" points="68,-143.87 71.5,-153.87 75,-143.87 68,-143.87"/>
</a>
</g>
</g>
<!-- Node4 -->
<g id="Node000004" class="node">
<title>Node4</title>
<g id="a_Node000004"><a xlink:href="classroo__display_1_1Streamable.html" target="_top" xlink:title=" ">
<polygon fill="white" stroke="#666666" points="138.5,-228 4.5,-228 4.5,-209 138.5,-209 138.5,-228"/>
<text text-anchor="middle" x="71.5" y="-216" font-family="Helvetica,sans-Serif" font-size="10.00">roo_display::Streamable</text>
</a>
</g>
</g>
<!-- Node4&#45;&gt;Node3 -->
<g id="edge3_Node000003_Node000004" class="edge">
<title>Node4&#45;&gt;Node3</title>
<g id="a_edge3_Node000003_Node000004"><a xlink:title=" ">
<path fill="none" stroke="#63b8ff" d="M71.5,-198.66C71.5,-189.93 71.5,-179.99 71.5,-173.09"/>
<polygon fill="#63b8ff" stroke="#63b8ff" points="68,-198.75 71.5,-208.75 75,-198.75 68,-198.75"/>
</a>
</g>
</g>
<!-- Node5 -->
<g id="Node000005" class="node">
<title>Node5</title>
<g id="a_Node000005"><a xlink:href="classroo__display_1_1Drawable.html" target="_top" xlink:title=" ">
<polygon fill="white" stroke="#666666" points="134,-283 9,-283 9,-264 134,-264 134,-283"/>
<text text-anchor="middle" x="71.5" y="-271" font-family="Helvetica,sans-Serif" font-size="10.00">roo_display::Drawable</text>
</a>
</g>
</g>
<!-- Node5&#45;&gt;Node4 -->
<g id="edge4_Node000004_Node000005" class="edge">
<title>Node5&#45;&gt;Node4</title>
<g id="a_edge4_Node000004_Node000005"><a xlink:title=" ">
<path fill="none" stroke="#63b8ff" d="M71.5,-253.66C71.5,-244.93 71.5,-234.99 71.5,-228.09"/>
<polygon fill="#63b8ff" stroke="#63b8ff" points="68,-253.75 71.5,-263.75 75,-253.75 68,-253.75"/>
</a>
</g>
</g>
</g>
</svg>
