<?xml version="1.0" encoding="UTF-8" standalone="no"?>
<!DOCTYPE svg PUBLIC "-//W3C//DTD SVG 1.1//EN"
 "http://www.w3.org/Graphics/SVG/1.1/DTD/svg11.dtd">
<!-- Generated by graphviz version 2.43.0 (0)
 -->
<!-- Title: temp_repos/roo_display/src/roo_display/driver/common/compactor.h Pages: 1 -->
<!--zoomable 269 -->

<svg id="main" version="1.1" xmlns="http://www.w3.org/2000/svg" xmlns:xlink="http://www.w3.org/1999/xlink" xml:space="preserve" onload="init(evt)">
<style type="text/css"><![CDATA[
.node, .edge {opacity: 0.7;}
.node.selected, .edge.selected {opacity: 1;}
.edge:hover path { stroke: red; }
.edge:hover polygon { stroke: red; fill: red; }
]]></style>

<defs>
  <circle id="rim" cx="0" cy="0" r="7"/>
  <circle id="rim2" cx="0" cy="0" r="3.5"/>
  <g id="zoomPlus">
    <use xlink:href="#rim" fill="#404040"><set attributeName="fill" to="#808080" begin="zoomplus.mouseover" end="zoomplus.mouseout"/></use>
    <path d="M-4,0h8M0,-4v8" fill="none" stroke="white" stroke-width="1.5" pointer-events="none"/>
  </g>
  <g id="zoomMin">
    <use xlink:href="#rim" fill="#404040"><set attributeName="fill" to="#808080" begin="zoomminus.mouseover" end="zoomminus.mouseout"/></use>
    <path d="M-4,0h8" fill="none" stroke="white" stroke-width="1.5" pointer-events="none"/>
  </g>
  <g id="arrowUp" transform="translate(30 24)">
    <use xlink:href="#rim"/>
    <path pointer-events="none" fill="none" stroke="white" stroke-width="1.5" d="M0,-3.0v7 M-2.5,-0.5L0,-3.0L2.5,-0.5"/>
  </g>
  <g id="arrowRight" transform="rotate(90) translate(36 -43)">
    <use xlink:href="#rim"/>
    <path pointer-events="none" fill="none" stroke="white" stroke-width="1.5" d="M0,-3.0v7 M-2.5,-0.5L0,-3.0L2.5,-0.5"/>
  </g>
  <g id="arrowDown" transform="rotate(180) translate(-30 -48)">
    <use xlink:href="#rim"/>
    <path pointer-events="none" fill="none" stroke="white" stroke-width="1.5" d="M0,-3.0v7 M-2.5,-0.5L0,-3.0L2.5,-0.5"/>
  </g>
  <g id="arrowLeft" transform="rotate(270) translate(-36 17)">
    <use xlink:href="#rim"/>
    <path pointer-events="none" fill="none" stroke="white" stroke-width="1.5" d="M0,-3.0v7 M-2.5,-0.5L0,-3.0L2.5,-0.5"/>
  </g>
  <g id="resetDef">
    <use xlink:href="#rim2" fill="#404040"><set attributeName="fill" to="#808080" begin="reset.mouseover" end="reset.mouseout"/></use>
  </g>
</defs>
<script type="application/ecmascript">
var viewWidth = 1067;
var viewHeight = 269;
var sectionId = 'dynsection-0';
</script>
<script type="application/ecmascript" xlink:href="svg.min.js"/>
<svg id="graph" class="graph">
<g id="viewport">
<title>temp_repos/roo_display/src/roo_display/driver/common/compactor.h</title>
<!-- Node1 -->
<g id="Node000001" class="node">
<title>Node1</title>
<g id="a_Node000001"><a xlink:title=" ">
<polygon fill="#999999" stroke="#666666" points="757,-261 623,-261 623,-220 757,-220 757,-261"/>
<text text-anchor="start" x="631" y="-249" font-family="Helvetica,sans-Serif" font-size="10.00">temp_repos/roo_display</text>
<text text-anchor="start" x="631" y="-238" font-family="Helvetica,sans-Serif" font-size="10.00">/src/roo_display/driver</text>
<text text-anchor="middle" x="690" y="-227" font-family="Helvetica,sans-Serif" font-size="10.00">/common/compactor.h</text>
</a>
</g>
</g>
<!-- Node2 -->
<g id="Node000002" class="node">
<title>Node2</title>
<g id="a_Node000002"><a xlink:href="device_8h.html" target="_top" xlink:title=" ">
<polygon fill="white" stroke="#666666" points="760.5,-184 619.5,-184 619.5,-165 760.5,-165 760.5,-184"/>
<text text-anchor="middle" x="690" y="-172" font-family="Helvetica,sans-Serif" font-size="10.00">roo_display/core/device.h</text>
</a>
</g>
</g>
<!-- Node1&#45;&gt;Node2 -->
<g id="edge1_Node000001_Node000002" class="edge">
<title>Node1&#45;&gt;Node2</title>
<g id="a_edge1_Node000001_Node000002"><a xlink:title=" ">
<path fill="none" stroke="#63b8ff" d="M690,-219.95C690,-211.85 690,-202.5 690,-194.47"/>
<polygon fill="#63b8ff" stroke="#63b8ff" points="693.5,-194.26 690,-184.26 686.5,-194.26 693.5,-194.26"/>
</a>
</g>
</g>
<!-- Node3 -->
<g id="Node000003" class="node">
<title>Node3</title>
<g id="a_Node000003"><a xlink:title=" ">
<polygon fill="#e0e0e0" stroke="#999999" points="571.5,-19 506.5,-19 506.5,0 571.5,0 571.5,-19"/>
<text text-anchor="middle" x="539" y="-7" font-family="Helvetica,sans-Serif" font-size="10.00">inttypes.h</text>
</a>
</g>
</g>
<!-- Node2&#45;&gt;Node3 -->
<g id="edge2_Node000002_Node000003" class="edge">
<title>Node2&#45;&gt;Node3</title>
<g id="a_edge2_Node000002_Node000003"><a xlink:title=" ">
<path fill="none" stroke="#63b8ff" d="M682.54,-164.98C675.09,-156.28 663.56,-142.19 655,-129 634.76,-97.82 641.77,-81.8 616,-55 603.06,-41.55 585.17,-30.87 569.89,-23.36"/>
<polygon fill="#63b8ff" stroke="#63b8ff" points="571.32,-20.16 560.78,-19.09 568.35,-26.5 571.32,-20.16"/>
</a>
</g>
</g>
<!-- Node4 -->
<g id="Node000004" class="node">
<title>Node4</title>
<g id="a_Node000004"><a xlink:href="blending_8h.html" target="_top" xlink:title=" ">
<polygon fill="white" stroke="#666666" points="419,-129 265,-129 265,-110 419,-110 419,-129"/>
<text text-anchor="middle" x="342" y="-117" font-family="Helvetica,sans-Serif" font-size="10.00">roo_display/color/blending.h</text>
</a>
</g>
</g>
<!-- Node2&#45;&gt;Node4 -->
<g id="edge3_Node000002_Node000004" class="edge">
<title>Node2&#45;&gt;Node4</title>
<g id="a_edge3_Node000002_Node000004"><a xlink:title=" ">
<path fill="none" stroke="#63b8ff" d="M634.09,-164.98C572.54,-155.61 473.66,-140.55 408.26,-130.59"/>
<polygon fill="#63b8ff" stroke="#63b8ff" points="408.47,-127.08 398.06,-129.04 407.42,-134 408.47,-127.08"/>
</a>
</g>
</g>
<!-- Node8 -->
<g id="Node000008" class="node">
<title>Node8</title>
<g id="a_Node000008"><a xlink:href="color_8h.html" target="_top" xlink:title=" ">
<polygon fill="white" stroke="#666666" points="198.5,-74 63.5,-74 63.5,-55 198.5,-55 198.5,-74"/>
<text text-anchor="middle" x="131" y="-62" font-family="Helvetica,sans-Serif" font-size="10.00">roo_display/color/color.h</text>
</a>
</g>
</g>
<!-- Node2&#45;&gt;Node8 -->
<g id="edge15_Node000002_Node000008" class="edge">
<title>Node2&#45;&gt;Node8</title>
<g id="a_edge15_Node000002_Node000008"><a xlink:title=" ">
<path fill="none" stroke="#63b8ff" d="M619.33,-174.13C532.16,-173.13 380.25,-165.55 256,-129 217.45,-117.66 176.64,-94.54 152.51,-79.55"/>
<polygon fill="#63b8ff" stroke="#63b8ff" points="154.15,-76.44 143.83,-74.05 150.41,-82.36 154.15,-76.44"/>
</a>
</g>
</g>
<!-- Node13 -->
<g id="Node000013" class="node">
<title>Node13</title>
<g id="a_Node000013"><a xlink:href="box_8h.html" target="_top" xlink:title=" ">
<polygon fill="white" stroke="#666666" points="971.5,-129 844.5,-129 844.5,-110 971.5,-110 971.5,-129"/>
<text text-anchor="middle" x="908" y="-117" font-family="Helvetica,sans-Serif" font-size="10.00">roo_display/core/box.h</text>
</a>
</g>
</g>
<!-- Node2&#45;&gt;Node13 -->
<g id="edge16_Node000002_Node000013" class="edge">
<title>Node2&#45;&gt;Node13</title>
<g id="a_edge16_Node000002_Node000013"><a xlink:title=" ">
<path fill="none" stroke="#63b8ff" d="M725.03,-164.98C762.5,-155.87 822.05,-141.4 862.98,-131.45"/>
<polygon fill="#63b8ff" stroke="#63b8ff" points="863.81,-134.85 872.7,-129.08 862.16,-128.04 863.81,-134.85"/>
</a>
</g>
</g>
<!-- Node15 -->
<g id="Node000015" class="node">
<title>Node15</title>
<g id="a_Node000015"><a xlink:href="orientation_8h.html" target="_top" xlink:title=" ">
<polygon fill="white" stroke="#666666" points="826,-129 664,-129 664,-110 826,-110 826,-129"/>
<text text-anchor="middle" x="745" y="-117" font-family="Helvetica,sans-Serif" font-size="10.00">roo_display/core/orientation.h</text>
</a>
</g>
</g>
<!-- Node2&#45;&gt;Node15 -->
<g id="edge18_Node000002_Node000015" class="edge">
<title>Node2&#45;&gt;Node15</title>
<g id="a_edge18_Node000002_Node000015"><a xlink:title=" ">
<path fill="none" stroke="#63b8ff" d="M699.08,-164.75C707.09,-157.03 718.96,-145.6 728.62,-136.28"/>
<polygon fill="#63b8ff" stroke="#63b8ff" points="731.31,-138.55 736.09,-129.09 726.46,-133.51 731.31,-138.55"/>
</a>
</g>
</g>
<!-- Node17 -->
<g id="Node000017" class="node">
<title>Node17</title>
<g id="a_Node000017"><a xlink:title=" ">
<polygon fill="#e0e0e0" stroke="#999999" points="1058.5,-129 989.5,-129 989.5,-110 1058.5,-110 1058.5,-129"/>
<text text-anchor="middle" x="1024" y="-117" font-family="Helvetica,sans-Serif" font-size="10.00">roo_time.h</text>
</a>
</g>
</g>
<!-- Node2&#45;&gt;Node17 -->
<g id="edge21_Node000002_Node000017" class="edge">
<title>Node2&#45;&gt;Node17</title>
<g id="a_edge21_Node000002_Node000017"><a xlink:title=" ">
<path fill="none" stroke="#63b8ff" d="M750.88,-164.98C807.59,-156.86 894.76,-143.92 979.27,-129.25"/>
<polygon fill="#63b8ff" stroke="#63b8ff" points="980.04,-132.66 989.29,-127.5 978.84,-125.77 980.04,-132.66"/>
</a>
</g>
</g>
<!-- Node4&#45;&gt;Node3 -->
<g id="edge4_Node000004_Node000003" class="edge">
<title>Node4&#45;&gt;Node3</title>
<g id="a_edge4_Node000004_Node000003"><a xlink:title=" ">
<path fill="none" stroke="#63b8ff" d="M307.37,-109.99C271.73,-99.62 224.25,-80.31 246,-55 277.73,-18.09 422.59,-11.43 496.04,-10.47"/>
<polygon fill="#63b8ff" stroke="#63b8ff" points="496.37,-13.97 506.33,-10.37 496.3,-6.97 496.37,-13.97"/>
</a>
</g>
</g>
<!-- Node5 -->
<g id="Node000005" class="node">
<title>Node5</title>
<g id="a_Node000005"><a xlink:title=" ">
<polygon fill="#e0e0e0" stroke="#999999" points="365.5,-74 318.5,-74 318.5,-55 365.5,-55 365.5,-74"/>
<text text-anchor="middle" x="342" y="-62" font-family="Helvetica,sans-Serif" font-size="10.00">cmath</text>
</a>
</g>
</g>
<!-- Node4&#45;&gt;Node5 -->
<g id="edge5_Node000004_Node000005" class="edge">
<title>Node4&#45;&gt;Node5</title>
<g id="a_edge5_Node000004_Node000005"><a xlink:title=" ">
<path fill="none" stroke="#63b8ff" d="M342,-109.75C342,-102.8 342,-92.85 342,-84.13"/>
<polygon fill="#63b8ff" stroke="#63b8ff" points="345.5,-84.09 342,-74.09 338.5,-84.09 345.5,-84.09"/>
</a>
</g>
</g>
<!-- Node6 -->
<g id="Node000006" class="node">
<title>Node6</title>
<g id="a_Node000006"><a xlink:title=" ">
<polygon fill="#e0e0e0" stroke="#999999" points="452.5,-74 383.5,-74 383.5,-55 452.5,-55 452.5,-74"/>
<text text-anchor="middle" x="418" y="-62" font-family="Helvetica,sans-Serif" font-size="10.00">type_traits</text>
</a>
</g>
</g>
<!-- Node4&#45;&gt;Node6 -->
<g id="edge6_Node000004_Node000006" class="edge">
<title>Node4&#45;&gt;Node6</title>
<g id="a_edge6_Node000004_Node000006"><a xlink:title=" ">
<path fill="none" stroke="#63b8ff" d="M354.21,-109.98C365.78,-101.92 383.38,-89.65 397.16,-80.03"/>
<polygon fill="#63b8ff" stroke="#63b8ff" points="399.37,-82.76 405.57,-74.17 395.36,-77.02 399.37,-82.76"/>
</a>
</g>
</g>
<!-- Node7 -->
<g id="Node000007" class="node">
<title>Node7</title>
<g id="a_Node000007"><a xlink:title=" ">
<polygon fill="#e0e0e0" stroke="#999999" points="300.5,-74 255.5,-74 255.5,-55 300.5,-55 300.5,-74"/>
<text text-anchor="middle" x="278" y="-62" font-family="Helvetica,sans-Serif" font-size="10.00">utility</text>
</a>
</g>
</g>
<!-- Node4&#45;&gt;Node7 -->
<g id="edge7_Node000004_Node000007" class="edge">
<title>Node4&#45;&gt;Node7</title>
<g id="a_edge7_Node000004_Node000007"><a xlink:title=" ">
<path fill="none" stroke="#63b8ff" d="M331.72,-109.98C322.16,-102.07 307.72,-90.11 296.22,-80.58"/>
<polygon fill="#63b8ff" stroke="#63b8ff" points="298.4,-77.85 288.47,-74.17 293.94,-83.24 298.4,-77.85"/>
</a>
</g>
</g>
<!-- Node4&#45;&gt;Node8 -->
<g id="edge8_Node000004_Node000008" class="edge">
<title>Node4&#45;&gt;Node8</title>
<g id="a_edge8_Node000004_Node000008"><a xlink:title=" ">
<path fill="none" stroke="#63b8ff" d="M308.1,-109.98C271.98,-100.91 214.68,-86.52 175.08,-76.57"/>
<polygon fill="#63b8ff" stroke="#63b8ff" points="175.72,-73.12 165.17,-74.08 174.01,-79.91 175.72,-73.12"/>
</a>
</g>
</g>
<!-- Node12 -->
<g id="Node000012" class="node">
<title>Node12</title>
<g id="a_Node000012"><a xlink:href="traits_8h.html" target="_top" xlink:title=" ">
<polygon fill="white" stroke="#666666" points="607.5,-74 470.5,-74 470.5,-55 607.5,-55 607.5,-74"/>
<text text-anchor="middle" x="539" y="-62" font-family="Helvetica,sans-Serif" font-size="10.00">roo_display/color/traits.h</text>
</a>
</g>
</g>
<!-- Node4&#45;&gt;Node12 -->
<g id="edge13_Node000004_Node000012" class="edge">
<title>Node4&#45;&gt;Node12</title>
<g id="a_edge13_Node000004_Node000012"><a xlink:title=" ">
<path fill="none" stroke="#63b8ff" d="M373.65,-109.98C407.16,-100.97 460.2,-86.7 497.14,-76.76"/>
<polygon fill="#63b8ff" stroke="#63b8ff" points="498.35,-80.06 507.1,-74.08 496.53,-73.3 498.35,-80.06"/>
</a>
</g>
</g>
<!-- Node8&#45;&gt;Node3 -->
<g id="edge9_Node000008_Node000003" class="edge">
<title>Node8&#45;&gt;Node3</title>
<g id="a_edge9_Node000008_Node000003"><a xlink:title=" ">
<path fill="none" stroke="#63b8ff" d="M196.55,-54.98C280.93,-44.02 425.14,-25.29 496.47,-16.02"/>
<polygon fill="#63b8ff" stroke="#63b8ff" points="496.98,-19.49 506.45,-14.73 496.08,-12.55 496.98,-19.49"/>
</a>
</g>
</g>
<!-- Node9 -->
<g id="Node000009" class="node">
<title>Node9</title>
<g id="a_Node000009"><a xlink:title=" ">
<polygon fill="#e0e0e0" stroke="#999999" points="56,-19 0,-19 0,0 56,0 56,-19"/>
<text text-anchor="middle" x="28" y="-7" font-family="Helvetica,sans-Serif" font-size="10.00">roo_io.h</text>
</a>
</g>
</g>
<!-- Node8&#45;&gt;Node9 -->
<g id="edge10_Node000008_Node000009" class="edge">
<title>Node8&#45;&gt;Node9</title>
<g id="a_edge10_Node000008_Node000009"><a xlink:title=" ">
<path fill="none" stroke="#63b8ff" d="M114.45,-54.98C98.11,-46.57 72.87,-33.59 53.87,-23.81"/>
<polygon fill="#63b8ff" stroke="#63b8ff" points="55.34,-20.63 44.85,-19.17 52.14,-26.86 55.34,-20.63"/>
</a>
</g>
</g>
<!-- Node10 -->
<g id="Node000010" class="node">
<title>Node10</title>
<g id="a_Node000010"><a xlink:title=" ">
<polygon fill="#e0e0e0" stroke="#999999" points="188,-19 74,-19 74,0 188,0 188,-19"/>
<text text-anchor="middle" x="131" y="-7" font-family="Helvetica,sans-Serif" font-size="10.00">roo_backport/byte.h</text>
</a>
</g>
</g>
<!-- Node8&#45;&gt;Node10 -->
<g id="edge11_Node000008_Node000010" class="edge">
<title>Node8&#45;&gt;Node10</title>
<g id="a_edge11_Node000008_Node000010"><a xlink:title=" ">
<path fill="none" stroke="#63b8ff" d="M131,-54.75C131,-47.8 131,-37.85 131,-29.13"/>
<polygon fill="#63b8ff" stroke="#63b8ff" points="134.5,-29.09 131,-19.09 127.5,-29.09 134.5,-29.09"/>
</a>
</g>
</g>
<!-- Node11 -->
<g id="Node000011" class="node">
<title>Node11</title>
<g id="a_Node000011"><a xlink:title=" ">
<polygon fill="#e0e0e0" stroke="#999999" points="321.5,-19 206.5,-19 206.5,0 321.5,0 321.5,-19"/>
<text text-anchor="middle" x="264" y="-7" font-family="Helvetica,sans-Serif" font-size="10.00">roo_io/memory/fill.h</text>
</a>
</g>
</g>
<!-- Node8&#45;&gt;Node11 -->
<g id="edge12_Node000008_Node000011" class="edge">
<title>Node8&#45;&gt;Node11</title>
<g id="a_edge12_Node000008_Node000011"><a xlink:title=" ">
<path fill="none" stroke="#63b8ff" d="M152.37,-54.98C174.15,-46.3 208.16,-32.75 232.92,-22.88"/>
<polygon fill="#63b8ff" stroke="#63b8ff" points="234.25,-26.12 242.24,-19.17 231.66,-19.62 234.25,-26.12"/>
</a>
</g>
</g>
<!-- Node12&#45;&gt;Node3 -->
<g id="edge14_Node000012_Node000003" class="edge">
<title>Node12&#45;&gt;Node3</title>
<g id="a_edge14_Node000012_Node000003"><a xlink:title=" ">
<path fill="none" stroke="#63b8ff" d="M539,-54.75C539,-47.8 539,-37.85 539,-29.13"/>
<polygon fill="#63b8ff" stroke="#63b8ff" points="542.5,-29.09 539,-19.09 535.5,-29.09 542.5,-29.09"/>
</a>
</g>
</g>
<!-- Node14 -->
<g id="Node000014" class="node">
<title>Node14</title>
<g id="a_Node000014"><a xlink:title=" ">
<polygon fill="#e0e0e0" stroke="#999999" points="940,-74 876,-74 876,-55 940,-55 940,-74"/>
<text text-anchor="middle" x="908" y="-62" font-family="Helvetica,sans-Serif" font-size="10.00">algorithm</text>
</a>
</g>
</g>
<!-- Node13&#45;&gt;Node14 -->
<g id="edge17_Node000013_Node000014" class="edge">
<title>Node13&#45;&gt;Node14</title>
<g id="a_edge17_Node000013_Node000014"><a xlink:title=" ">
<path fill="none" stroke="#63b8ff" d="M908,-109.75C908,-102.8 908,-92.85 908,-84.13"/>
<polygon fill="#63b8ff" stroke="#63b8ff" points="911.5,-84.09 908,-74.09 904.5,-84.09 911.5,-84.09"/>
</a>
</g>
</g>
<!-- Node15&#45;&gt;Node3 -->
<g id="edge20_Node000015_Node000003" class="edge">
<title>Node15&#45;&gt;Node3</title>
<g id="a_edge20_Node000015_Node000003"><a xlink:title=" ">
<path fill="none" stroke="#63b8ff" d="M733.78,-109.87C716.48,-96.83 681.94,-71.84 650,-55 625.63,-42.15 596.71,-30.67 574.49,-22.59"/>
<polygon fill="#63b8ff" stroke="#63b8ff" points="575.4,-19.19 564.8,-19.12 573.04,-25.78 575.4,-19.19"/>
</a>
</g>
</g>
<!-- Node16 -->
<g id="Node000016" class="node">
<title>Node16</title>
<g id="a_Node000016"><a xlink:title=" ">
<polygon fill="#e0e0e0" stroke="#999999" points="773,-74 717,-74 717,-55 773,-55 773,-74"/>
<text text-anchor="middle" x="745" y="-62" font-family="Helvetica,sans-Serif" font-size="10.00">assert.h</text>
</a>
</g>
</g>
<!-- Node15&#45;&gt;Node16 -->
<g id="edge19_Node000015_Node000016" class="edge">
<title>Node15&#45;&gt;Node16</title>
<g id="a_edge19_Node000015_Node000016"><a xlink:title=" ">
<path fill="none" stroke="#63b8ff" d="M745,-109.75C745,-102.8 745,-92.85 745,-84.13"/>
<polygon fill="#63b8ff" stroke="#63b8ff" points="748.5,-84.09 745,-74.09 741.5,-84.09 748.5,-84.09"/>
</a>
</g>
</g>
</g>
</svg>

<g id="navigator" transform="translate(0 0)" fill="#404254">
  <rect fill="#f2f5e9" fill-opacity="0.5" stroke="#606060" stroke-width=".5" x="0" y="0" width="60" height="60"/>
  <use id="zoomplus" xlink:href="#zoomPlus" x="17" y="9" onmousedown="handleZoom(evt,'in')"/>
  <use id="zoomminus" xlink:href="#zoomMin" x="42" y="9" onmousedown="handleZoom(evt,'out')"/>
  <use id="reset" xlink:href="#resetDef" x="30" y="36" onmousedown="handleReset()"/>
   <use id="arrowup" xlink:href="#arrowUp" x="0" y="0" onmousedown="handlePan(0,-1)"/>
  <use id="arrowright" xlink:href="#arrowRight" x="0" y="0" onmousedown="handlePan(1,0)"/>
  <use id="arrowdown" xlink:href="#arrowDown" x="0" y="0" onmousedown="handlePan(0,1)"/>
  <use id="arrowleft" xlink:href="#arrowLeft" x="0" y="0" onmousedown="handlePan(-1,0)"/>
</g>
<svg viewBox="0 0 15 15" width="100%" height="30px" preserveAspectRatio="xMaxYMin meet">
 <g id="arrow_out" transform="scale(0.3 0.3)">
  <a xlink:href="compactor_8h__incl_org.svg" target="_base">
   <rect id="button" ry="5" rx="5" y="6" x="6" height="38" width="38"
        fill="#f2f5e9" fill-opacity="0.5" stroke="#606060" stroke-width="1.0"/>
   <path id="arrow"
     d="M 11.500037,31.436501 C 11.940474,20.09759 22.043105,11.32322 32.158766,21.979434 L 37.068811,17.246167 C 37.068811,17.246167 37.088388,32 37.088388,32 L 22.160133,31.978069 C 22.160133,31.978069 26.997745,27.140456 26.997745,27.140456 C 18.528582,18.264221 13.291696,25.230495 11.500037,31.436501 z"
     style="fill:#404040;"/>
  </a>
 </g>
</svg>

<style type='text/css'>
<![CDATA[
[data-mouse-over-selected='false'] { opacity: 0.7; }
[data-mouse-over-selected='true']  { opacity: 1.0; }
]]>
</style>
<script type="application/ecmascript"><![CDATA[
document.addEventListener('DOMContentLoaded', (event) => {
  highlightEdges();
  highlightAdjacentNodes();
});
]]></script>
</svg>
