<?xml version="1.0" encoding="UTF-8" standalone="no"?>
<!DOCTYPE svg PUBLIC "-//W3C//DTD SVG 1.1//EN"
 "http://www.w3.org/Graphics/SVG/1.1/DTD/svg11.dtd">
<!-- Generated by graphviz version 2.43.0 (0)
 -->
<!-- Title: temp_repos/roo_display/src/roo_display/core/drawable.h Pages: 1 -->
<svg width="668pt" height="214pt"
 viewBox="0.00 0.00 668.49 214.00" xmlns="http://www.w3.org/2000/svg" xmlns:xlink="http://www.w3.org/1999/xlink">
<g id="graph0" class="graph" transform="scale(1 1) rotate(0) translate(4 210)">
<title>temp_repos/roo_display/src/roo_display/core/drawable.h</title>
<!-- Node1 -->
<g id="Node000001" class="node">
<title>Node1</title>
<g id="a_Node000001"><a xlink:title=" ">
<polygon fill="#999999" stroke="#666666" points="522.99,-206 388.99,-206 388.99,-165 522.99,-165 522.99,-206"/>
<text text-anchor="start" x="396.99" y="-194" font-family="Helvetica,sans-Serif" font-size="10.00">temp_repos/roo_display</text>
<text text-anchor="start" x="396.99" y="-183" font-family="Helvetica,sans-Serif" font-size="10.00">/src/roo_display/core</text>
<text text-anchor="middle" x="455.99" y="-172" font-family="Helvetica,sans-Serif" font-size="10.00">/drawable.h</text>
</a>
</g>
</g>
<!-- Node2 -->
<g id="Node000002" class="node">
<title>Node2</title>
<g id="a_Node000002"><a xlink:href="blending_8h.html" target="_top" xlink:title=" ">
<polygon fill="white" stroke="#666666" points="269.99,-129 115.99,-129 115.99,-110 269.99,-110 269.99,-129"/>
<text text-anchor="middle" x="192.99" y="-117" font-family="Helvetica,sans-Serif" font-size="10.00">roo_display/color/blending.h</text>
</a>
</g>
</g>
<!-- Node1&#45;&gt;Node2 -->
<g id="edge1_Node000001_Node000002" class="edge">
<title>Node1&#45;&gt;Node2</title>
<g id="a_edge1_Node000001_Node000002"><a xlink:title=" ">
<path fill="none" stroke="#63b8ff" d="M388.95,-168.18C341.57,-156.65 279.35,-141.52 237.86,-131.42"/>
<polygon fill="#63b8ff" stroke="#63b8ff" points="238.59,-127.99 228.05,-129.03 236.93,-134.8 238.59,-127.99"/>
</a>
</g>
</g>
<!-- Node7 -->
<g id="Node000007" class="node">
<title>Node7</title>
<g id="a_Node000007"><a xlink:href="color_8h.html" target="_top" xlink:title=" ">
<polygon fill="white" stroke="#666666" points="523.49,-74 388.49,-74 388.49,-55 523.49,-55 523.49,-74"/>
<text text-anchor="middle" x="455.99" y="-62" font-family="Helvetica,sans-Serif" font-size="10.00">roo_display/color/color.h</text>
</a>
</g>
</g>
<!-- Node1&#45;&gt;Node7 -->
<g id="edge13_Node000001_Node000007" class="edge">
<title>Node1&#45;&gt;Node7</title>
<g id="a_edge13_Node000001_Node000007"><a xlink:title=" ">
<path fill="none" stroke="#63b8ff" d="M455.99,-164.85C455.99,-142.48 455.99,-106.19 455.99,-84.21"/>
<polygon fill="#63b8ff" stroke="#63b8ff" points="459.49,-84.18 455.99,-74.18 452.49,-84.18 459.49,-84.18"/>
</a>
</g>
</g>
<!-- Node12 -->
<g id="Node000012" class="node">
<title>Node12</title>
<g id="a_Node000012"><a xlink:href="box_8h.html" target="_top" xlink:title=" ">
<polygon fill="white" stroke="#666666" points="624.49,-129 497.49,-129 497.49,-110 624.49,-110 624.49,-129"/>
<text text-anchor="middle" x="560.99" y="-117" font-family="Helvetica,sans-Serif" font-size="10.00">roo_display/core/box.h</text>
</a>
</g>
</g>
<!-- Node1&#45;&gt;Node12 -->
<g id="edge14_Node000001_Node000012" class="edge">
<title>Node1&#45;&gt;Node12</title>
<g id="a_edge14_Node000001_Node000012"><a xlink:title=" ">
<path fill="none" stroke="#63b8ff" d="M488.07,-164.95C504.19,-155.12 523.37,-143.43 538.01,-134.51"/>
<polygon fill="#63b8ff" stroke="#63b8ff" points="540.18,-137.29 546.9,-129.09 536.54,-131.31 540.18,-137.29"/>
</a>
</g>
</g>
<!-- Node3 -->
<g id="Node000003" class="node">
<title>Node3</title>
<g id="a_Node000003"><a xlink:title=" ">
<polygon fill="#e0e0e0" stroke="#999999" points="320.49,-19 255.49,-19 255.49,0 320.49,0 320.49,-19"/>
<text text-anchor="middle" x="287.99" y="-7" font-family="Helvetica,sans-Serif" font-size="10.00">inttypes.h</text>
</a>
</g>
</g>
<!-- Node2&#45;&gt;Node3 -->
<g id="edge2_Node000002_Node000003" class="edge">
<title>Node2&#45;&gt;Node3</title>
<g id="a_edge2_Node000002_Node000003"><a xlink:title=" ">
<path fill="none" stroke="#63b8ff" d="M115.96,-115.44C51.32,-110.05 -25.39,-95.3 8.99,-55 38.82,-20.04 174.46,-12.42 245.03,-10.84"/>
<polygon fill="#63b8ff" stroke="#63b8ff" points="245.43,-14.34 255.36,-10.64 245.3,-7.34 245.43,-14.34"/>
</a>
</g>
</g>
<!-- Node4 -->
<g id="Node000004" class="node">
<title>Node4</title>
<g id="a_Node000004"><a xlink:title=" ">
<polygon fill="#e0e0e0" stroke="#999999" points="65.49,-74 18.49,-74 18.49,-55 65.49,-55 65.49,-74"/>
<text text-anchor="middle" x="41.99" y="-62" font-family="Helvetica,sans-Serif" font-size="10.00">cmath</text>
</a>
</g>
</g>
<!-- Node2&#45;&gt;Node4 -->
<g id="edge3_Node000002_Node000004" class="edge">
<title>Node2&#45;&gt;Node4</title>
<g id="a_edge3_Node000002_Node000004"><a xlink:title=" ">
<path fill="none" stroke="#63b8ff" d="M168.73,-109.98C143.38,-101.09 103.42,-87.06 75.16,-77.14"/>
<polygon fill="#63b8ff" stroke="#63b8ff" points="76.29,-73.83 65.7,-73.82 73.97,-80.43 76.29,-73.83"/>
</a>
</g>
</g>
<!-- Node5 -->
<g id="Node000005" class="node">
<title>Node5</title>
<g id="a_Node000005"><a xlink:title=" ">
<polygon fill="#e0e0e0" stroke="#999999" points="152.49,-74 83.49,-74 83.49,-55 152.49,-55 152.49,-74"/>
<text text-anchor="middle" x="117.99" y="-62" font-family="Helvetica,sans-Serif" font-size="10.00">type_traits</text>
</a>
</g>
</g>
<!-- Node2&#45;&gt;Node5 -->
<g id="edge4_Node000002_Node000005" class="edge">
<title>Node2&#45;&gt;Node5</title>
<g id="a_edge4_Node000002_Node000005"><a xlink:title=" ">
<path fill="none" stroke="#63b8ff" d="M180.94,-109.98C169.53,-101.92 152.16,-89.65 138.56,-80.03"/>
<polygon fill="#63b8ff" stroke="#63b8ff" points="140.45,-77.08 130.26,-74.17 136.41,-82.8 140.45,-77.08"/>
</a>
</g>
</g>
<!-- Node6 -->
<g id="Node000006" class="node">
<title>Node6</title>
<g id="a_Node000006"><a xlink:title=" ">
<polygon fill="#e0e0e0" stroke="#999999" points="215.49,-74 170.49,-74 170.49,-55 215.49,-55 215.49,-74"/>
<text text-anchor="middle" x="192.99" y="-62" font-family="Helvetica,sans-Serif" font-size="10.00">utility</text>
</a>
</g>
</g>
<!-- Node2&#45;&gt;Node6 -->
<g id="edge5_Node000002_Node000006" class="edge">
<title>Node2&#45;&gt;Node6</title>
<g id="a_edge5_Node000002_Node000006"><a xlink:title=" ">
<path fill="none" stroke="#63b8ff" d="M192.99,-109.75C192.99,-102.8 192.99,-92.85 192.99,-84.13"/>
<polygon fill="#63b8ff" stroke="#63b8ff" points="196.49,-84.09 192.99,-74.09 189.49,-84.09 196.49,-84.09"/>
</a>
</g>
</g>
<!-- Node2&#45;&gt;Node7 -->
<g id="edge6_Node000002_Node000007" class="edge">
<title>Node2&#45;&gt;Node7</title>
<g id="a_edge6_Node000002_Node000007"><a xlink:title=" ">
<path fill="none" stroke="#63b8ff" d="M235.25,-109.98C281.03,-100.76 354.13,-86.03 403.55,-76.07"/>
<polygon fill="#63b8ff" stroke="#63b8ff" points="404.29,-79.49 413.41,-74.08 402.91,-72.63 404.29,-79.49"/>
</a>
</g>
</g>
<!-- Node11 -->
<g id="Node000011" class="node">
<title>Node11</title>
<g id="a_Node000011"><a xlink:href="traits_8h.html" target="_top" xlink:title=" ">
<polygon fill="white" stroke="#666666" points="370.49,-74 233.49,-74 233.49,-55 370.49,-55 370.49,-74"/>
<text text-anchor="middle" x="301.99" y="-62" font-family="Helvetica,sans-Serif" font-size="10.00">roo_display/color/traits.h</text>
</a>
</g>
</g>
<!-- Node2&#45;&gt;Node11 -->
<g id="edge11_Node000002_Node000011" class="edge">
<title>Node2&#45;&gt;Node11</title>
<g id="a_edge11_Node000002_Node000011"><a xlink:title=" ">
<path fill="none" stroke="#63b8ff" d="M210.51,-109.98C227.96,-101.5 255,-88.35 275.16,-78.54"/>
<polygon fill="#63b8ff" stroke="#63b8ff" points="276.7,-81.69 284.16,-74.17 273.64,-75.4 276.7,-81.69"/>
</a>
</g>
</g>
<!-- Node7&#45;&gt;Node3 -->
<g id="edge7_Node000007_Node000003" class="edge">
<title>Node7&#45;&gt;Node3</title>
<g id="a_edge7_Node000007_Node000003"><a xlink:title=" ">
<path fill="none" stroke="#63b8ff" d="M429,-54.98C400.79,-46.09 356.35,-32.07 324.91,-22.15"/>
<polygon fill="#63b8ff" stroke="#63b8ff" points="325.79,-18.75 315.2,-19.08 323.68,-25.43 325.79,-18.75"/>
</a>
</g>
</g>
<!-- Node8 -->
<g id="Node000008" class="node">
<title>Node8</title>
<g id="a_Node000008"><a xlink:title=" ">
<polygon fill="#e0e0e0" stroke="#999999" points="394.99,-19 338.99,-19 338.99,0 394.99,0 394.99,-19"/>
<text text-anchor="middle" x="366.99" y="-7" font-family="Helvetica,sans-Serif" font-size="10.00">roo_io.h</text>
</a>
</g>
</g>
<!-- Node7&#45;&gt;Node8 -->
<g id="edge8_Node000007_Node000008" class="edge">
<title>Node7&#45;&gt;Node8</title>
<g id="a_edge8_Node000007_Node000008"><a xlink:title=" ">
<path fill="none" stroke="#63b8ff" d="M441.69,-54.98C427.89,-46.77 406.75,-34.18 390.48,-24.49"/>
<polygon fill="#63b8ff" stroke="#63b8ff" points="391.93,-21.28 381.55,-19.17 388.35,-27.29 391.93,-21.28"/>
</a>
</g>
</g>
<!-- Node9 -->
<g id="Node000009" class="node">
<title>Node9</title>
<g id="a_Node000009"><a xlink:title=" ">
<polygon fill="#e0e0e0" stroke="#999999" points="526.99,-19 412.99,-19 412.99,0 526.99,0 526.99,-19"/>
<text text-anchor="middle" x="469.99" y="-7" font-family="Helvetica,sans-Serif" font-size="10.00">roo_backport/byte.h</text>
</a>
</g>
</g>
<!-- Node7&#45;&gt;Node9 -->
<g id="edge9_Node000007_Node000009" class="edge">
<title>Node7&#45;&gt;Node9</title>
<g id="a_edge9_Node000007_Node000009"><a xlink:title=" ">
<path fill="none" stroke="#63b8ff" d="M458.3,-54.75C460.16,-47.72 462.83,-37.62 465.15,-28.84"/>
<polygon fill="#63b8ff" stroke="#63b8ff" points="468.55,-29.65 467.72,-19.09 461.79,-27.86 468.55,-29.65"/>
</a>
</g>
</g>
<!-- Node10 -->
<g id="Node000010" class="node">
<title>Node10</title>
<g id="a_Node000010"><a xlink:title=" ">
<polygon fill="#e0e0e0" stroke="#999999" points="660.49,-19 545.49,-19 545.49,0 660.49,0 660.49,-19"/>
<text text-anchor="middle" x="602.99" y="-7" font-family="Helvetica,sans-Serif" font-size="10.00">roo_io/memory/fill.h</text>
</a>
</g>
</g>
<!-- Node7&#45;&gt;Node10 -->
<g id="edge10_Node000007_Node000010" class="edge">
<title>Node7&#45;&gt;Node10</title>
<g id="a_edge10_Node000007_Node000010"><a xlink:title=" ">
<path fill="none" stroke="#63b8ff" d="M479.61,-54.98C503.9,-46.23 541.94,-32.51 569.37,-22.62"/>
<polygon fill="#63b8ff" stroke="#63b8ff" points="570.72,-25.85 578.94,-19.17 568.35,-19.27 570.72,-25.85"/>
</a>
</g>
</g>
<!-- Node11&#45;&gt;Node3 -->
<g id="edge12_Node000011_Node000003" class="edge">
<title>Node11&#45;&gt;Node3</title>
<g id="a_edge12_Node000011_Node000003"><a xlink:title=" ">
<path fill="none" stroke="#63b8ff" d="M299.68,-54.75C297.83,-47.72 295.16,-37.62 292.84,-28.84"/>
<polygon fill="#63b8ff" stroke="#63b8ff" points="296.2,-27.86 290.26,-19.09 289.43,-29.65 296.2,-27.86"/>
</a>
</g>
</g>
<!-- Node13 -->
<g id="Node000013" class="node">
<title>Node13</title>
<g id="a_Node000013"><a xlink:title=" ">
<polygon fill="#e0e0e0" stroke="#999999" points="605.99,-74 541.99,-74 541.99,-55 605.99,-55 605.99,-74"/>
<text text-anchor="middle" x="573.99" y="-62" font-family="Helvetica,sans-Serif" font-size="10.00">algorithm</text>
</a>
</g>
</g>
<!-- Node12&#45;&gt;Node13 -->
<g id="edge15_Node000012_Node000013" class="edge">
<title>Node12&#45;&gt;Node13</title>
<g id="a_edge15_Node000012_Node000013"><a xlink:title=" ">
<path fill="none" stroke="#63b8ff" d="M563.14,-109.75C564.86,-102.72 567.34,-92.62 569.49,-83.84"/>
<polygon fill="#63b8ff" stroke="#63b8ff" points="572.9,-84.63 571.89,-74.09 566.1,-82.97 572.9,-84.63"/>
</a>
</g>
</g>
</g>
</svg>
