<?xml version="1.0" encoding="UTF-8" standalone="no"?>
<!DOCTYPE svg PUBLIC "-//W3C//DTD SVG 1.1//EN"
 "http://www.w3.org/Graphics/SVG/1.1/DTD/svg11.dtd">
<!-- Generated by graphviz version 2.43.0 (0)
 -->
<!-- Title: temp_repos/roo_display/src/roo_display/color/hsv.cpp Pages: 1 -->
<svg width="413pt" height="214pt"
 viewBox="0.00 0.00 413.00 214.00" xmlns="http://www.w3.org/2000/svg" xmlns:xlink="http://www.w3.org/1999/xlink">
<g id="graph0" class="graph" transform="scale(1 1) rotate(0) translate(4 210)">
<title>temp_repos/roo_display/src/roo_display/color/hsv.cpp</title>
<!-- Node1 -->
<g id="Node000001" class="node">
<title>Node1</title>
<g id="a_Node000001"><a xlink:title=" ">
<polygon fill="#999999" stroke="#666666" points="283.5,-206 149.5,-206 149.5,-165 283.5,-165 283.5,-206"/>
<text text-anchor="start" x="157.5" y="-194" font-family="Helvetica,sans-Serif" font-size="10.00">temp_repos/roo_display</text>
<text text-anchor="start" x="157.5" y="-183" font-family="Helvetica,sans-Serif" font-size="10.00">/src/roo_display/color</text>
<text text-anchor="middle" x="216.5" y="-172" font-family="Helvetica,sans-Serif" font-size="10.00">/hsv.cpp</text>
</a>
</g>
</g>
<!-- Node2 -->
<g id="Node000002" class="node">
<title>Node2</title>
<g id="a_Node000002"><a xlink:href="hsv_8h.html" target="_top" xlink:title=" ">
<polygon fill="white" stroke="#666666" points="226.5,-129 98.5,-129 98.5,-110 226.5,-110 226.5,-129"/>
<text text-anchor="middle" x="162.5" y="-117" font-family="Helvetica,sans-Serif" font-size="10.00">roo_display/color/hsv.h</text>
</a>
</g>
</g>
<!-- Node1&#45;&gt;Node2 -->
<g id="edge1_Node000001_Node000002" class="edge">
<title>Node1&#45;&gt;Node2</title>
<g id="a_edge1_Node000001_Node000002"><a xlink:title=" ">
<path fill="none" stroke="#63b8ff" d="M200,-164.95C192.47,-156.02 183.64,-145.55 176.44,-137.02"/>
<polygon fill="#63b8ff" stroke="#63b8ff" points="179.02,-134.65 169.89,-129.26 173.67,-139.16 179.02,-134.65"/>
</a>
</g>
</g>
<!-- Node8 -->
<g id="Node000008" class="node">
<title>Node8</title>
<g id="a_Node000008"><a xlink:title=" ">
<polygon fill="#e0e0e0" stroke="#999999" points="298,-129 245,-129 245,-110 298,-110 298,-129"/>
<text text-anchor="middle" x="271.5" y="-117" font-family="Helvetica,sans-Serif" font-size="10.00">stdlib.h</text>
</a>
</g>
</g>
<!-- Node1&#45;&gt;Node8 -->
<g id="edge7_Node000001_Node000008" class="edge">
<title>Node1&#45;&gt;Node8</title>
<g id="a_edge7_Node000001_Node000008"><a xlink:title=" ">
<path fill="none" stroke="#63b8ff" d="M233.3,-164.95C240.98,-156.02 249.97,-145.55 257.3,-137.02"/>
<polygon fill="#63b8ff" stroke="#63b8ff" points="260.11,-139.13 263.97,-129.26 254.8,-134.56 260.11,-139.13"/>
</a>
</g>
</g>
<!-- Node3 -->
<g id="Node000003" class="node">
<title>Node3</title>
<g id="a_Node000003"><a xlink:href="color_8h.html" target="_top" xlink:title=" ">
<polygon fill="white" stroke="#666666" points="230,-74 95,-74 95,-55 230,-55 230,-74"/>
<text text-anchor="middle" x="162.5" y="-62" font-family="Helvetica,sans-Serif" font-size="10.00">roo_display/color/color.h</text>
</a>
</g>
</g>
<!-- Node2&#45;&gt;Node3 -->
<g id="edge2_Node000002_Node000003" class="edge">
<title>Node2&#45;&gt;Node3</title>
<g id="a_edge2_Node000002_Node000003"><a xlink:title=" ">
<path fill="none" stroke="#63b8ff" d="M162.5,-109.75C162.5,-102.8 162.5,-92.85 162.5,-84.13"/>
<polygon fill="#63b8ff" stroke="#63b8ff" points="166,-84.09 162.5,-74.09 159,-84.09 166,-84.09"/>
</a>
</g>
</g>
<!-- Node4 -->
<g id="Node000004" class="node">
<title>Node4</title>
<g id="a_Node000004"><a xlink:title=" ">
<polygon fill="#e0e0e0" stroke="#999999" points="65,-19 0,-19 0,0 65,0 65,-19"/>
<text text-anchor="middle" x="32.5" y="-7" font-family="Helvetica,sans-Serif" font-size="10.00">inttypes.h</text>
</a>
</g>
</g>
<!-- Node3&#45;&gt;Node4 -->
<g id="edge3_Node000003_Node000004" class="edge">
<title>Node3&#45;&gt;Node4</title>
<g id="a_edge3_Node000003_Node000004"><a xlink:title=" ">
<path fill="none" stroke="#63b8ff" d="M141.61,-54.98C120.42,-46.34 87.37,-32.87 63.2,-23.02"/>
<polygon fill="#63b8ff" stroke="#63b8ff" points="64.35,-19.7 53.77,-19.17 61.71,-26.19 64.35,-19.7"/>
</a>
</g>
</g>
<!-- Node5 -->
<g id="Node000005" class="node">
<title>Node5</title>
<g id="a_Node000005"><a xlink:title=" ">
<polygon fill="#e0e0e0" stroke="#999999" points="139.5,-19 83.5,-19 83.5,0 139.5,0 139.5,-19"/>
<text text-anchor="middle" x="111.5" y="-7" font-family="Helvetica,sans-Serif" font-size="10.00">roo_io.h</text>
</a>
</g>
</g>
<!-- Node3&#45;&gt;Node5 -->
<g id="edge4_Node000003_Node000005" class="edge">
<title>Node3&#45;&gt;Node5</title>
<g id="a_edge4_Node000003_Node000005"><a xlink:title=" ">
<path fill="none" stroke="#63b8ff" d="M154.08,-54.75C146.73,-47.11 135.87,-35.82 126.96,-26.56"/>
<polygon fill="#63b8ff" stroke="#63b8ff" points="129.22,-23.87 119.76,-19.09 124.18,-28.72 129.22,-23.87"/>
</a>
</g>
</g>
<!-- Node6 -->
<g id="Node000006" class="node">
<title>Node6</title>
<g id="a_Node000006"><a xlink:title=" ">
<polygon fill="#e0e0e0" stroke="#999999" points="271.5,-19 157.5,-19 157.5,0 271.5,0 271.5,-19"/>
<text text-anchor="middle" x="214.5" y="-7" font-family="Helvetica,sans-Serif" font-size="10.00">roo_backport/byte.h</text>
</a>
</g>
</g>
<!-- Node3&#45;&gt;Node6 -->
<g id="edge5_Node000003_Node000006" class="edge">
<title>Node3&#45;&gt;Node6</title>
<g id="a_edge5_Node000003_Node000006"><a xlink:title=" ">
<path fill="none" stroke="#63b8ff" d="M171.09,-54.75C178.66,-47.03 189.88,-35.6 199.01,-26.28"/>
<polygon fill="#63b8ff" stroke="#63b8ff" points="201.57,-28.68 206.07,-19.09 196.57,-23.78 201.57,-28.68"/>
</a>
</g>
</g>
<!-- Node7 -->
<g id="Node000007" class="node">
<title>Node7</title>
<g id="a_Node000007"><a xlink:title=" ">
<polygon fill="#e0e0e0" stroke="#999999" points="405,-19 290,-19 290,0 405,0 405,-19"/>
<text text-anchor="middle" x="347.5" y="-7" font-family="Helvetica,sans-Serif" font-size="10.00">roo_io/memory/fill.h</text>
</a>
</g>
</g>
<!-- Node3&#45;&gt;Node7 -->
<g id="edge6_Node000003_Node000007" class="edge">
<title>Node3&#45;&gt;Node7</title>
<g id="a_edge6_Node000003_Node000007"><a xlink:title=" ">
<path fill="none" stroke="#63b8ff" d="M192.22,-54.98C223.55,-46.01 273.07,-31.82 307.74,-21.89"/>
<polygon fill="#63b8ff" stroke="#63b8ff" points="308.89,-25.2 317.54,-19.08 306.97,-18.47 308.89,-25.2"/>
</a>
</g>
</g>
</g>
</svg>
