<?xml version="1.0" encoding="UTF-8" standalone="no"?>
<!DOCTYPE svg PUBLIC "-//W3C//DTD SVG 1.1//EN"
 "http://www.w3.org/Graphics/SVG/1.1/DTD/svg11.dtd">
<!-- Generated by graphviz version 2.43.0 (0)
 -->
<!-- Title: temp_repos/roo_display/src/roo_display/internal/raw_streamable_overlay.h Pages: 1 -->
<!--zoomable 456 -->

<svg id="main" version="1.1" xmlns="http://www.w3.org/2000/svg" xmlns:xlink="http://www.w3.org/1999/xlink" xml:space="preserve" onload="init(evt)">
<style type="text/css"><![CDATA[
.node, .edge {opacity: 0.7;}
.node.selected, .edge.selected {opacity: 1;}
.edge:hover path { stroke: red; }
.edge:hover polygon { stroke: red; fill: red; }
]]></style>

<defs>
  <circle id="rim" cx="0" cy="0" r="7"/>
  <circle id="rim2" cx="0" cy="0" r="3.5"/>
  <g id="zoomPlus">
    <use xlink:href="#rim" fill="#404040"><set attributeName="fill" to="#808080" begin="zoomplus.mouseover" end="zoomplus.mouseout"/></use>
    <path d="M-4,0h8M0,-4v8" fill="none" stroke="white" stroke-width="1.5" pointer-events="none"/>
  </g>
  <g id="zoomMin">
    <use xlink:href="#rim" fill="#404040"><set attributeName="fill" to="#808080" begin="zoomminus.mouseover" end="zoomminus.mouseout"/></use>
    <path d="M-4,0h8" fill="none" stroke="white" stroke-width="1.5" pointer-events="none"/>
  </g>
  <g id="arrowUp" transform="translate(30 24)">
    <use xlink:href="#rim"/>
    <path pointer-events="none" fill="none" stroke="white" stroke-width="1.5" d="M0,-3.0v7 M-2.5,-0.5L0,-3.0L2.5,-0.5"/>
  </g>
  <g id="arrowRight" transform="rotate(90) translate(36 -43)">
    <use xlink:href="#rim"/>
    <path pointer-events="none" fill="none" stroke="white" stroke-width="1.5" d="M0,-3.0v7 M-2.5,-0.5L0,-3.0L2.5,-0.5"/>
  </g>
  <g id="arrowDown" transform="rotate(180) translate(-30 -48)">
    <use xlink:href="#rim"/>
    <path pointer-events="none" fill="none" stroke="white" stroke-width="1.5" d="M0,-3.0v7 M-2.5,-0.5L0,-3.0L2.5,-0.5"/>
  </g>
  <g id="arrowLeft" transform="rotate(270) translate(-36 17)">
    <use xlink:href="#rim"/>
    <path pointer-events="none" fill="none" stroke="white" stroke-width="1.5" d="M0,-3.0v7 M-2.5,-0.5L0,-3.0L2.5,-0.5"/>
  </g>
  <g id="resetDef">
    <use xlink:href="#rim2" fill="#404040"><set attributeName="fill" to="#808080" begin="reset.mouseover" end="reset.mouseout"/></use>
  </g>
</defs>
<script type="application/ecmascript">
var viewWidth = 987;
var viewHeight = 456;
var sectionId = 'dynsection-0';
</script>
<script type="application/ecmascript" xlink:href="svg.min.js"/>
<svg id="graph" class="graph">
<g id="viewport">
<title>temp_repos/roo_display/src/roo_display/internal/raw_streamable_overlay.h</title>
<!-- Node1 -->
<g id="Node000001" class="node">
<title>Node1</title>
<g id="a_Node000001"><a xlink:title=" ">
<polygon fill="#999999" stroke="#666666" points="409.7,-448 261.7,-448 261.7,-407 409.7,-407 409.7,-448"/>
<text text-anchor="start" x="269.7" y="-436" font-family="Helvetica,sans-Serif" font-size="10.00">temp_repos/roo_display</text>
<text text-anchor="start" x="269.7" y="-425" font-family="Helvetica,sans-Serif" font-size="10.00">/src/roo_display/internal</text>
<text text-anchor="middle" x="335.7" y="-414" font-family="Helvetica,sans-Serif" font-size="10.00">/raw_streamable_overlay.h</text>
</a>
</g>
</g>
<!-- Node2 -->
<g id="Node000002" class="node">
<title>Node2</title>
<g id="a_Node000002"><a xlink:href="raw__streamable_8h.html" target="_top" xlink:title=" ">
<polygon fill="white" stroke="#666666" points="516.2,-371 403.2,-371 403.2,-341 516.2,-341 516.2,-371"/>
<text text-anchor="start" x="411.2" y="-359" font-family="Helvetica,sans-Serif" font-size="10.00">roo_display/internal</text>
<text text-anchor="middle" x="459.7" y="-348" font-family="Helvetica,sans-Serif" font-size="10.00">/raw_streamable.h</text>
</a>
</g>
</g>
<!-- Node1&#45;&gt;Node2 -->
<g id="edge1_Node000001_Node000002" class="edge">
<title>Node1&#45;&gt;Node2</title>
<g id="a_edge1_Node000001_Node000002"><a xlink:title=" ">
<path fill="none" stroke="#63b8ff" d="M370.57,-406.96C387.73,-397.33 408.35,-385.78 425.44,-376.2"/>
<polygon fill="#63b8ff" stroke="#63b8ff" points="427.5,-379.06 434.52,-371.11 424.08,-372.95 427.5,-379.06"/>
</a>
</g>
</g>
<!-- Node23 -->
<g id="Node000023" class="node">
<title>Node23</title>
<g id="a_Node000023"><a xlink:href="alignment_8h.html" target="_top" xlink:title=" ">
<polygon fill="white" stroke="#666666" points="284.7,-184 138.7,-184 138.7,-165 284.7,-165 284.7,-184"/>
<text text-anchor="middle" x="211.7" y="-172" font-family="Helvetica,sans-Serif" font-size="10.00">roo_display/ui/alignment.h</text>
</a>
</g>
</g>
<!-- Node1&#45;&gt;Node23 -->
<g id="edge37_Node000001_Node000023" class="edge">
<title>Node1&#45;&gt;Node23</title>
<g id="a_edge37_Node000001_Node000023"><a xlink:title=" ">
<path fill="none" stroke="#63b8ff" d="M325.97,-406.8C302.51,-359.31 243.1,-239.06 220.56,-193.43"/>
<polygon fill="#63b8ff" stroke="#63b8ff" points="223.67,-191.84 216.11,-184.42 217.4,-194.94 223.67,-191.84"/>
</a>
</g>
</g>
<!-- Node3 -->
<g id="Node000003" class="node">
<title>Node3</title>
<g id="a_Node000003"><a xlink:href="buffered__drawing_8h.html" target="_top" xlink:title=" ">
<polygon fill="white" stroke="#666666" points="541.7,-250 401.7,-250 401.7,-220 541.7,-220 541.7,-250"/>
<text text-anchor="start" x="409.7" y="-238" font-family="Helvetica,sans-Serif" font-size="10.00">roo_display/core/buffered</text>
<text text-anchor="middle" x="471.7" y="-227" font-family="Helvetica,sans-Serif" font-size="10.00">_drawing.h</text>
</a>
</g>
</g>
<!-- Node2&#45;&gt;Node3 -->
<g id="edge2_Node000002_Node000003" class="edge">
<title>Node2&#45;&gt;Node3</title>
<g id="a_edge2_Node000002_Node000003"><a xlink:title=" ">
<path fill="none" stroke="#63b8ff" d="M461.12,-340.88C463.12,-321.02 466.8,-284.55 469.25,-260.29"/>
<polygon fill="#63b8ff" stroke="#63b8ff" points="472.75,-260.4 470.27,-250.1 465.79,-259.7 472.75,-260.4"/>
</a>
</g>
</g>
<!-- Node5 -->
<g id="Node000005" class="node">
<title>Node5</title>
<g id="a_Node000005"><a xlink:href="device_8h.html" target="_top" xlink:title=" ">
<polygon fill="white" stroke="#666666" points="444.2,-184 303.2,-184 303.2,-165 444.2,-165 444.2,-184"/>
<text text-anchor="middle" x="373.7" y="-172" font-family="Helvetica,sans-Serif" font-size="10.00">roo_display/core/device.h</text>
</a>
</g>
</g>
<!-- Node2&#45;&gt;Node5 -->
<g id="edge29_Node000002_Node000005" class="edge">
<title>Node2&#45;&gt;Node5</title>
<g id="a_edge29_Node000002_Node000005"><a xlink:title=" ">
<path fill="none" stroke="#63b8ff" d="M442.2,-340.88C421.03,-322.54 386.5,-288.31 372.7,-250 366.13,-231.79 367.58,-209.4 369.92,-193.95"/>
<polygon fill="#63b8ff" stroke="#63b8ff" points="373.37,-194.55 371.68,-184.09 366.48,-193.32 373.37,-194.55"/>
</a>
</g>
</g>
<!-- Node21 -->
<g id="Node000021" class="node">
<title>Node21</title>
<g id="a_Node000021"><a xlink:href="drawable_8h.html" target="_top" xlink:title=" ">
<polygon fill="white" stroke="#666666" points="741.7,-184 587.7,-184 587.7,-165 741.7,-165 741.7,-184"/>
<text text-anchor="middle" x="664.7" y="-172" font-family="Helvetica,sans-Serif" font-size="10.00">roo_display/core/drawable.h</text>
</a>
</g>
</g>
<!-- Node2&#45;&gt;Node21 -->
<g id="edge30_Node000002_Node000021" class="edge">
<title>Node2&#45;&gt;Node21</title>
<g id="a_edge30_Node000002_Node000021"><a xlink:title=" ">
<path fill="none" stroke="#63b8ff" d="M516.67,-348.49C569.56,-341.15 642.74,-327.25 660.7,-305 686.27,-273.31 677.67,-221.67 670.44,-194.15"/>
<polygon fill="#63b8ff" stroke="#63b8ff" points="673.73,-192.92 667.63,-184.26 667,-194.84 673.73,-192.92"/>
</a>
</g>
</g>
<!-- Node22 -->
<g id="Node000022" class="node">
<title>Node22</title>
<g id="a_Node000022"><a xlink:href="streamable_8h.html" target="_top" xlink:title=" ">
<polygon fill="white" stroke="#666666" points="651.7,-305 487.7,-305 487.7,-286 651.7,-286 651.7,-305"/>
<text text-anchor="middle" x="569.7" y="-293" font-family="Helvetica,sans-Serif" font-size="10.00">roo_display/core/streamable.h</text>
</a>
</g>
</g>
<!-- Node2&#45;&gt;Node22 -->
<g id="edge31_Node000002_Node000022" class="edge">
<title>Node2&#45;&gt;Node22</title>
<g id="a_edge31_Node000002_Node000022"><a xlink:title=" ">
<path fill="none" stroke="#63b8ff" d="M486.04,-340.99C503.74,-331.58 526.93,-319.24 544.4,-309.95"/>
<polygon fill="#63b8ff" stroke="#63b8ff" points="546.27,-312.92 553.45,-305.14 542.98,-306.74 546.27,-312.92"/>
</a>
</g>
</g>
<!-- Node4 -->
<g id="Node000004" class="node">
<title>Node4</title>
<g id="a_Node000004"><a xlink:title=" ">
<polygon fill="#e0e0e0" stroke="#999999" points="520.7,-184 462.7,-184 462.7,-165 520.7,-165 520.7,-184"/>
<text text-anchor="middle" x="491.7" y="-172" font-family="Helvetica,sans-Serif" font-size="10.00">memory</text>
</a>
</g>
</g>
<!-- Node3&#45;&gt;Node4 -->
<g id="edge3_Node000003_Node000004" class="edge">
<title>Node3&#45;&gt;Node4</title>
<g id="a_edge3_Node000003_Node000004"><a xlink:title=" ">
<path fill="none" stroke="#63b8ff" d="M476.54,-219.84C479.2,-212.04 482.54,-202.27 485.41,-193.89"/>
<polygon fill="#63b8ff" stroke="#63b8ff" points="488.78,-194.86 488.7,-184.27 482.15,-192.6 488.78,-194.86"/>
</a>
</g>
</g>
<!-- Node3&#45;&gt;Node5 -->
<g id="edge4_Node000003_Node000005" class="edge">
<title>Node3&#45;&gt;Node5</title>
<g id="a_edge4_Node000003_Node000005"><a xlink:title=" ">
<path fill="none" stroke="#63b8ff" d="M447.97,-219.84C432.49,-210.6 412.38,-198.59 396.98,-189.4"/>
<polygon fill="#63b8ff" stroke="#63b8ff" points="398.47,-186.21 388.09,-184.09 394.89,-192.23 398.47,-186.21"/>
</a>
</g>
</g>
<!-- Node3&#45;&gt;Node21 -->
<g id="edge25_Node000003_Node000021" class="edge">
<title>Node3&#45;&gt;Node21</title>
<g id="a_edge25_Node000003_Node000021"><a xlink:title=" ">
<path fill="none" stroke="#63b8ff" d="M517.92,-219.99C551.23,-209.89 595.63,-196.44 626.84,-186.98"/>
<polygon fill="#63b8ff" stroke="#63b8ff" points="627.92,-190.3 636.48,-184.05 625.89,-183.6 627.92,-190.3"/>
</a>
</g>
</g>
<!-- Node6 -->
<g id="Node000006" class="node">
<title>Node6</title>
<g id="a_Node000006"><a xlink:title=" ">
<polygon fill="#e0e0e0" stroke="#999999" points="295.2,-19 230.2,-19 230.2,0 295.2,0 295.2,-19"/>
<text text-anchor="middle" x="262.7" y="-7" font-family="Helvetica,sans-Serif" font-size="10.00">inttypes.h</text>
</a>
</g>
</g>
<!-- Node5&#45;&gt;Node6 -->
<g id="edge5_Node000005_Node000006" class="edge">
<title>Node5&#45;&gt;Node6</title>
<g id="a_edge5_Node000005_Node000006"><a xlink:title=" ">
<path fill="none" stroke="#63b8ff" d="M321.08,-164.96C282.13,-157.45 233.81,-145.17 221.7,-129 201.98,-102.68 209.73,-85.64 221.7,-55 226.1,-43.73 234.84,-33.59 243.12,-25.85"/>
<polygon fill="#63b8ff" stroke="#63b8ff" points="245.52,-28.4 250.77,-19.2 240.93,-23.12 245.52,-28.4"/>
</a>
</g>
</g>
<!-- Node7 -->
<g id="Node000007" class="node">
<title>Node7</title>
<g id="a_Node000007"><a xlink:href="blending_8h.html" target="_top" xlink:title=" ">
<polygon fill="white" stroke="#666666" points="636.7,-129 482.7,-129 482.7,-110 636.7,-110 636.7,-129"/>
<text text-anchor="middle" x="559.7" y="-117" font-family="Helvetica,sans-Serif" font-size="10.00">roo_display/color/blending.h</text>
</a>
</g>
</g>
<!-- Node5&#45;&gt;Node7 -->
<g id="edge6_Node000005_Node000007" class="edge">
<title>Node5&#45;&gt;Node7</title>
<g id="a_edge6_Node000005_Node000007"><a xlink:title=" ">
<path fill="none" stroke="#63b8ff" d="M403.58,-164.98C435.08,-156.01 484.86,-141.82 519.72,-131.89"/>
<polygon fill="#63b8ff" stroke="#63b8ff" points="520.92,-135.19 529.58,-129.08 519,-128.46 520.92,-135.19"/>
</a>
</g>
</g>
<!-- Node11 -->
<g id="Node000011" class="node">
<title>Node11</title>
<g id="a_Node000011"><a xlink:href="color_8h.html" target="_top" xlink:title=" ">
<polygon fill="white" stroke="#666666" points="856.2,-74 721.2,-74 721.2,-55 856.2,-55 856.2,-74"/>
<text text-anchor="middle" x="788.7" y="-62" font-family="Helvetica,sans-Serif" font-size="10.00">roo_display/color/color.h</text>
</a>
</g>
</g>
<!-- Node5&#45;&gt;Node11 -->
<g id="edge18_Node000005_Node000011" class="edge">
<title>Node5&#45;&gt;Node11</title>
<g id="a_edge18_Node000005_Node000011"><a xlink:title=" ">
<path fill="none" stroke="#63b8ff" d="M437.42,-164.99C505.19,-155.6 607.75,-140.32 645.7,-129 688.77,-116.14 735.91,-93.37 763.86,-78.88"/>
<polygon fill="#63b8ff" stroke="#63b8ff" points="765.69,-81.88 772.91,-74.13 762.43,-75.68 765.69,-81.88"/>
</a>
</g>
</g>
<!-- Node16 -->
<g id="Node000016" class="node">
<title>Node16</title>
<g id="a_Node000016"><a xlink:href="box_8h.html" target="_top" xlink:title=" ">
<polygon fill="white" stroke="#666666" points="358.2,-129 231.2,-129 231.2,-110 358.2,-110 358.2,-129"/>
<text text-anchor="middle" x="294.7" y="-117" font-family="Helvetica,sans-Serif" font-size="10.00">roo_display/core/box.h</text>
</a>
</g>
</g>
<!-- Node5&#45;&gt;Node16 -->
<g id="edge19_Node000005_Node000016" class="edge">
<title>Node5&#45;&gt;Node16</title>
<g id="a_edge19_Node000005_Node000016"><a xlink:title=" ">
<path fill="none" stroke="#63b8ff" d="M361,-164.98C348.87,-156.84 330.34,-144.41 315.95,-134.76"/>
<polygon fill="#63b8ff" stroke="#63b8ff" points="317.87,-131.84 307.62,-129.17 313.97,-137.65 317.87,-131.84"/>
</a>
</g>
</g>
<!-- Node18 -->
<g id="Node000018" class="node">
<title>Node18</title>
<g id="a_Node000018"><a xlink:href="orientation_8h.html" target="_top" xlink:title=" ">
<polygon fill="white" stroke="#666666" points="174.7,-129 12.7,-129 12.7,-110 174.7,-110 174.7,-129"/>
<text text-anchor="middle" x="93.7" y="-117" font-family="Helvetica,sans-Serif" font-size="10.00">roo_display/core/orientation.h</text>
</a>
</g>
</g>
<!-- Node5&#45;&gt;Node18 -->
<g id="edge21_Node000005_Node000018" class="edge">
<title>Node5&#45;&gt;Node18</title>
<g id="a_edge21_Node000005_Node000018"><a xlink:title=" ">
<path fill="none" stroke="#63b8ff" d="M328.71,-164.98C279.77,-155.72 201.49,-140.9 148.88,-130.94"/>
<polygon fill="#63b8ff" stroke="#63b8ff" points="149.51,-127.5 139.04,-129.08 148.21,-134.38 149.51,-127.5"/>
</a>
</g>
</g>
<!-- Node20 -->
<g id="Node000020" class="node">
<title>Node20</title>
<g id="a_Node000020"><a xlink:title=" ">
<polygon fill="#e0e0e0" stroke="#999999" points="445.2,-129 376.2,-129 376.2,-110 445.2,-110 445.2,-129"/>
<text text-anchor="middle" x="410.7" y="-117" font-family="Helvetica,sans-Serif" font-size="10.00">roo_time.h</text>
</a>
</g>
</g>
<!-- Node5&#45;&gt;Node20 -->
<g id="edge24_Node000005_Node000020" class="edge">
<title>Node5&#45;&gt;Node20</title>
<g id="a_edge24_Node000005_Node000020"><a xlink:title=" ">
<path fill="none" stroke="#63b8ff" d="M379.81,-164.75C384.98,-157.34 392.54,-146.5 398.89,-137.41"/>
<polygon fill="#63b8ff" stroke="#63b8ff" points="401.85,-139.29 404.7,-129.09 396.11,-135.29 401.85,-139.29"/>
</a>
</g>
</g>
<!-- Node7&#45;&gt;Node6 -->
<g id="edge7_Node000007_Node000006" class="edge">
<title>Node7&#45;&gt;Node6</title>
<g id="a_edge7_Node000007_Node000006"><a xlink:title=" ">
<path fill="none" stroke="#63b8ff" d="M482.62,-111.58C439.86,-105.59 386.61,-94.49 342.7,-74 317.48,-62.23 293.11,-41.03 278.03,-26.38"/>
<polygon fill="#63b8ff" stroke="#63b8ff" points="280.21,-23.61 270.67,-19.02 275.27,-28.56 280.21,-23.61"/>
</a>
</g>
</g>
<!-- Node8 -->
<g id="Node000008" class="node">
<title>Node8</title>
<g id="a_Node000008"><a xlink:title=" ">
<polygon fill="#e0e0e0" stroke="#999999" points="616.2,-74 569.2,-74 569.2,-55 616.2,-55 616.2,-74"/>
<text text-anchor="middle" x="592.7" y="-62" font-family="Helvetica,sans-Serif" font-size="10.00">cmath</text>
</a>
</g>
</g>
<!-- Node7&#45;&gt;Node8 -->
<g id="edge8_Node000007_Node000008" class="edge">
<title>Node7&#45;&gt;Node8</title>
<g id="a_edge8_Node000007_Node000008"><a xlink:title=" ">
<path fill="none" stroke="#63b8ff" d="M565.15,-109.75C569.71,-102.42 576.36,-91.73 581.99,-82.7"/>
<polygon fill="#63b8ff" stroke="#63b8ff" points="585.03,-84.43 587.35,-74.09 579.09,-80.73 585.03,-84.43"/>
</a>
</g>
</g>
<!-- Node9 -->
<g id="Node000009" class="node">
<title>Node9</title>
<g id="a_Node000009"><a xlink:title=" ">
<polygon fill="#e0e0e0" stroke="#999999" points="703.2,-74 634.2,-74 634.2,-55 703.2,-55 703.2,-74"/>
<text text-anchor="middle" x="668.7" y="-62" font-family="Helvetica,sans-Serif" font-size="10.00">type_traits</text>
</a>
</g>
</g>
<!-- Node7&#45;&gt;Node9 -->
<g id="edge9_Node000007_Node000009" class="edge">
<title>Node7&#45;&gt;Node9</title>
<g id="a_edge9_Node000007_Node000009"><a xlink:title=" ">
<path fill="none" stroke="#63b8ff" d="M577.21,-109.98C594.67,-101.5 621.71,-88.35 641.87,-78.54"/>
<polygon fill="#63b8ff" stroke="#63b8ff" points="643.4,-81.69 650.87,-74.17 640.34,-75.4 643.4,-81.69"/>
</a>
</g>
</g>
<!-- Node10 -->
<g id="Node000010" class="node">
<title>Node10</title>
<g id="a_Node000010"><a xlink:title=" ">
<polygon fill="#e0e0e0" stroke="#999999" points="396.2,-74 351.2,-74 351.2,-55 396.2,-55 396.2,-74"/>
<text text-anchor="middle" x="373.7" y="-62" font-family="Helvetica,sans-Serif" font-size="10.00">utility</text>
</a>
</g>
</g>
<!-- Node7&#45;&gt;Node10 -->
<g id="edge10_Node000007_Node000010" class="edge">
<title>Node7&#45;&gt;Node10</title>
<g id="a_edge10_Node000007_Node000010"><a xlink:title=" ">
<path fill="none" stroke="#63b8ff" d="M529.81,-109.98C495.98,-100.34 441.04,-84.69 406.17,-74.75"/>
<polygon fill="#63b8ff" stroke="#63b8ff" points="407.05,-71.36 396.47,-71.99 405.13,-78.1 407.05,-71.36"/>
</a>
</g>
</g>
<!-- Node7&#45;&gt;Node11 -->
<g id="edge11_Node000007_Node000011" class="edge">
<title>Node7&#45;&gt;Node11</title>
<g id="a_edge11_Node000007_Node000011"><a xlink:title=" ">
<path fill="none" stroke="#63b8ff" d="M596.49,-109.98C635.93,-100.86 698.68,-86.33 741.68,-76.38"/>
<polygon fill="#63b8ff" stroke="#63b8ff" points="742.66,-79.75 751.62,-74.08 741.08,-72.93 742.66,-79.75"/>
</a>
</g>
</g>
<!-- Node15 -->
<g id="Node000015" class="node">
<title>Node15</title>
<g id="a_Node000015"><a xlink:href="traits_8h.html" target="_top" xlink:title=" ">
<polygon fill="white" stroke="#666666" points="551.2,-74 414.2,-74 414.2,-55 551.2,-55 551.2,-74"/>
<text text-anchor="middle" x="482.7" y="-62" font-family="Helvetica,sans-Serif" font-size="10.00">roo_display/color/traits.h</text>
</a>
</g>
</g>
<!-- Node7&#45;&gt;Node15 -->
<g id="edge16_Node000007_Node000015" class="edge">
<title>Node7&#45;&gt;Node15</title>
<g id="a_edge16_Node000007_Node000015"><a xlink:title=" ">
<path fill="none" stroke="#63b8ff" d="M547.33,-109.98C535.61,-101.92 517.78,-89.65 503.81,-80.03"/>
<polygon fill="#63b8ff" stroke="#63b8ff" points="505.51,-76.96 495.29,-74.17 501.55,-82.72 505.51,-76.96"/>
</a>
</g>
</g>
<!-- Node11&#45;&gt;Node6 -->
<g id="edge12_Node000011_Node000006" class="edge">
<title>Node11&#45;&gt;Node6</title>
<g id="a_edge12_Node000011_Node000006"><a xlink:title=" ">
<path fill="none" stroke="#63b8ff" d="M721.16,-55.9C718.3,-55.59 715.47,-55.29 712.7,-55 563.26,-39.26 385.72,-22.18 305.64,-14.56"/>
<polygon fill="#63b8ff" stroke="#63b8ff" points="305.75,-11.06 295.46,-13.59 305.08,-18.02 305.75,-11.06"/>
</a>
</g>
</g>
<!-- Node12 -->
<g id="Node000012" class="node">
<title>Node12</title>
<g id="a_Node000012"><a xlink:title=" ">
<polygon fill="#e0e0e0" stroke="#999999" points="713.7,-19 657.7,-19 657.7,0 713.7,0 713.7,-19"/>
<text text-anchor="middle" x="685.7" y="-7" font-family="Helvetica,sans-Serif" font-size="10.00">roo_io.h</text>
</a>
</g>
</g>
<!-- Node11&#45;&gt;Node12 -->
<g id="edge13_Node000011_Node000012" class="edge">
<title>Node11&#45;&gt;Node12</title>
<g id="a_edge13_Node000011_Node000012"><a xlink:title=" ">
<path fill="none" stroke="#63b8ff" d="M772.15,-54.98C755.8,-46.57 730.56,-33.59 711.57,-23.81"/>
<polygon fill="#63b8ff" stroke="#63b8ff" points="713.04,-20.63 702.55,-19.17 709.84,-26.86 713.04,-20.63"/>
</a>
</g>
</g>
<!-- Node13 -->
<g id="Node000013" class="node">
<title>Node13</title>
<g id="a_Node000013"><a xlink:title=" ">
<polygon fill="#e0e0e0" stroke="#999999" points="845.7,-19 731.7,-19 731.7,0 845.7,0 845.7,-19"/>
<text text-anchor="middle" x="788.7" y="-7" font-family="Helvetica,sans-Serif" font-size="10.00">roo_backport/byte.h</text>
</a>
</g>
</g>
<!-- Node11&#45;&gt;Node13 -->
<g id="edge14_Node000011_Node000013" class="edge">
<title>Node11&#45;&gt;Node13</title>
<g id="a_edge14_Node000011_Node000013"><a xlink:title=" ">
<path fill="none" stroke="#63b8ff" d="M788.7,-54.75C788.7,-47.8 788.7,-37.85 788.7,-29.13"/>
<polygon fill="#63b8ff" stroke="#63b8ff" points="792.2,-29.09 788.7,-19.09 785.2,-29.09 792.2,-29.09"/>
</a>
</g>
</g>
<!-- Node14 -->
<g id="Node000014" class="node">
<title>Node14</title>
<g id="a_Node000014"><a xlink:title=" ">
<polygon fill="#e0e0e0" stroke="#999999" points="979.2,-19 864.2,-19 864.2,0 979.2,0 979.2,-19"/>
<text text-anchor="middle" x="921.7" y="-7" font-family="Helvetica,sans-Serif" font-size="10.00">roo_io/memory/fill.h</text>
</a>
</g>
</g>
<!-- Node11&#45;&gt;Node14 -->
<g id="edge15_Node000011_Node000014" class="edge">
<title>Node11&#45;&gt;Node14</title>
<g id="a_edge15_Node000011_Node000014"><a xlink:title=" ">
<path fill="none" stroke="#63b8ff" d="M810.07,-54.98C831.85,-46.3 865.86,-32.75 890.62,-22.88"/>
<polygon fill="#63b8ff" stroke="#63b8ff" points="891.95,-26.12 899.94,-19.17 889.35,-19.62 891.95,-26.12"/>
</a>
</g>
</g>
<!-- Node15&#45;&gt;Node6 -->
<g id="edge17_Node000015_Node000006" class="edge">
<title>Node15&#45;&gt;Node6</title>
<g id="a_edge17_Node000015_Node000006"><a xlink:title=" ">
<path fill="none" stroke="#63b8ff" d="M447.35,-54.98C408.64,-45.66 346.57,-30.71 305.22,-20.74"/>
<polygon fill="#63b8ff" stroke="#63b8ff" points="305.98,-17.33 295.44,-18.39 304.34,-24.13 305.98,-17.33"/>
</a>
</g>
</g>
<!-- Node17 -->
<g id="Node000017" class="node">
<title>Node17</title>
<g id="a_Node000017"><a xlink:title=" ">
<polygon fill="#e0e0e0" stroke="#999999" points="294.7,-74 230.7,-74 230.7,-55 294.7,-55 294.7,-74"/>
<text text-anchor="middle" x="262.7" y="-62" font-family="Helvetica,sans-Serif" font-size="10.00">algorithm</text>
</a>
</g>
</g>
<!-- Node16&#45;&gt;Node17 -->
<g id="edge20_Node000016_Node000017" class="edge">
<title>Node16&#45;&gt;Node17</title>
<g id="a_edge20_Node000016_Node000017"><a xlink:title=" ">
<path fill="none" stroke="#63b8ff" d="M289.41,-109.75C284.99,-102.42 278.53,-91.73 273.08,-82.7"/>
<polygon fill="#63b8ff" stroke="#63b8ff" points="276.05,-80.84 267.88,-74.09 270.05,-84.46 276.05,-80.84"/>
</a>
</g>
</g>
<!-- Node18&#45;&gt;Node6 -->
<g id="edge23_Node000018_Node000006" class="edge">
<title>Node18&#45;&gt;Node6</title>
<g id="a_edge23_Node000018_Node000006"><a xlink:title=" ">
<path fill="none" stroke="#63b8ff" d="M93.34,-109.83C93.26,-96.27 95.18,-70.06 109.7,-55 138.32,-25.32 185.5,-15.11 219.9,-11.77"/>
<polygon fill="#63b8ff" stroke="#63b8ff" points="220.45,-15.24 230.14,-10.94 219.89,-8.26 220.45,-15.24"/>
</a>
</g>
</g>
<!-- Node19 -->
<g id="Node000019" class="node">
<title>Node19</title>
<g id="a_Node000019"><a xlink:title=" ">
<polygon fill="#e0e0e0" stroke="#999999" points="174.7,-74 118.7,-74 118.7,-55 174.7,-55 174.7,-74"/>
<text text-anchor="middle" x="146.7" y="-62" font-family="Helvetica,sans-Serif" font-size="10.00">assert.h</text>
</a>
</g>
</g>
<!-- Node18&#45;&gt;Node19 -->
<g id="edge22_Node000018_Node000019" class="edge">
<title>Node18&#45;&gt;Node19</title>
<g id="a_edge22_Node000018_Node000019"><a xlink:title=" ">
<path fill="none" stroke="#63b8ff" d="M102.45,-109.75C110.17,-102.03 121.6,-90.6 130.91,-81.28"/>
<polygon fill="#63b8ff" stroke="#63b8ff" points="133.51,-83.64 138.11,-74.09 128.56,-78.69 133.51,-83.64"/>
</a>
</g>
</g>
<!-- Node21&#45;&gt;Node7 -->
<g id="edge26_Node000021_Node000007" class="edge">
<title>Node21&#45;&gt;Node7</title>
<g id="a_edge26_Node000021_Node000007"><a xlink:title=" ">
<path fill="none" stroke="#63b8ff" d="M647.83,-164.98C631.09,-156.54 605.2,-143.47 585.8,-133.68"/>
<polygon fill="#63b8ff" stroke="#63b8ff" points="587.38,-130.55 576.87,-129.17 584.22,-136.8 587.38,-130.55"/>
</a>
</g>
</g>
<!-- Node21&#45;&gt;Node11 -->
<g id="edge27_Node000021_Node000011" class="edge">
<title>Node21&#45;&gt;Node11</title>
<g id="a_edge27_Node000021_Node000011"><a xlink:title=" ">
<path fill="none" stroke="#63b8ff" d="M674.84,-164.66C695.93,-146.3 744.71,-103.81 771.05,-80.87"/>
<polygon fill="#63b8ff" stroke="#63b8ff" points="773.51,-83.37 778.76,-74.16 768.92,-78.09 773.51,-83.37"/>
</a>
</g>
</g>
<!-- Node21&#45;&gt;Node16 -->
<g id="edge28_Node000021_Node000016" class="edge">
<title>Node21&#45;&gt;Node16</title>
<g id="a_edge28_Node000021_Node000016"><a xlink:title=" ">
<path fill="none" stroke="#63b8ff" d="M605.25,-164.98C539.54,-155.57 433.81,-140.43 364.29,-130.47"/>
<polygon fill="#63b8ff" stroke="#63b8ff" points="364.7,-126.99 354.3,-129.04 363.71,-133.92 364.7,-126.99"/>
</a>
</g>
</g>
<!-- Node22&#45;&gt;Node3 -->
<g id="edge34_Node000022_Node000003" class="edge">
<title>Node22&#45;&gt;Node3</title>
<g id="a_edge34_Node000022_Node000003"><a xlink:title=" ">
<path fill="none" stroke="#63b8ff" d="M555.24,-285.87C541.82,-277.86 521.36,-265.65 504.05,-255.31"/>
<polygon fill="#63b8ff" stroke="#63b8ff" points="505.72,-252.23 495.34,-250.11 502.13,-258.25 505.72,-252.23"/>
</a>
</g>
</g>
<!-- Node22&#45;&gt;Node5 -->
<g id="edge35_Node000022_Node000005" class="edge">
<title>Node22&#45;&gt;Node5</title>
<g id="a_edge35_Node000022_Node000005"><a xlink:title=" ">
<path fill="none" stroke="#63b8ff" d="M508.82,-285.96C464.35,-278.51 409.08,-266.33 392.7,-250 378.1,-235.45 374.2,-211.36 373.4,-194.52"/>
<polygon fill="#63b8ff" stroke="#63b8ff" points="376.9,-194.18 373.25,-184.23 369.9,-194.28 376.9,-194.18"/>
</a>
</g>
</g>
<!-- Node22&#45;&gt;Node7 -->
<g id="edge32_Node000022_Node000007" class="edge">
<title>Node22&#45;&gt;Node7</title>
<g id="a_edge32_Node000022_Node000007"><a xlink:title=" ">
<path fill="none" stroke="#63b8ff" d="M569.19,-285.63C567.63,-258.52 562.9,-176.32 560.77,-139.13"/>
<polygon fill="#63b8ff" stroke="#63b8ff" points="564.26,-138.93 560.19,-129.14 557.27,-139.33 564.26,-138.93"/>
</a>
</g>
</g>
<!-- Node22&#45;&gt;Node11 -->
<g id="edge33_Node000022_Node000011" class="edge">
<title>Node22&#45;&gt;Node11</title>
<g id="a_edge33_Node000022_Node000011"><a xlink:title=" ">
<path fill="none" stroke="#63b8ff" d="M594.34,-285.95C633.22,-271.22 708.7,-237.39 750.7,-184 774.21,-154.11 783.35,-109.29 786.77,-84.21"/>
<polygon fill="#63b8ff" stroke="#63b8ff" points="790.26,-84.55 787.97,-74.2 783.31,-83.71 790.26,-84.55"/>
</a>
</g>
</g>
<!-- Node22&#45;&gt;Node21 -->
<g id="edge36_Node000022_Node000021" class="edge">
<title>Node22&#45;&gt;Node21</title>
<g id="a_edge36_Node000022_Node000021"><a xlink:title=" ">
<path fill="none" stroke="#63b8ff" d="M576.53,-285.94C592.13,-266.4 630.62,-218.18 651.2,-192.4"/>
<polygon fill="#63b8ff" stroke="#63b8ff" points="654.17,-194.3 657.67,-184.3 648.7,-189.93 654.17,-194.3"/>
</a>
</g>
</g>
<!-- Node23&#45;&gt;Node6 -->
<g id="edge38_Node000023_Node000006" class="edge">
<title>Node23&#45;&gt;Node6</title>
<g id="a_edge38_Node000023_Node000006"><a xlink:title=" ">
<path fill="none" stroke="#63b8ff" d="M138.61,-167.49C85.69,-161.45 20.62,-149.93 3.7,-129 -1.61,-122.43 -0.47,-117.35 3.7,-110 46.61,-34.35 157.83,-15.92 219.65,-11.62"/>
<polygon fill="#63b8ff" stroke="#63b8ff" points="220.09,-15.1 229.86,-11.01 219.67,-8.11 220.09,-15.1"/>
</a>
</g>
</g>
<!-- Node23&#45;&gt;Node16 -->
<g id="edge39_Node000023_Node000016" class="edge">
<title>Node23&#45;&gt;Node16</title>
<g id="a_edge39_Node000023_Node000016"><a xlink:title=" ">
<path fill="none" stroke="#63b8ff" d="M225.03,-164.98C237.78,-156.84 257.25,-144.41 272.37,-134.76"/>
<polygon fill="#63b8ff" stroke="#63b8ff" points="274.57,-137.5 281.12,-129.17 270.81,-131.6 274.57,-137.5"/>
</a>
</g>
</g>
</g>
</svg>

<g id="navigator" transform="translate(0 0)" fill="#404254">
  <rect fill="#f2f5e9" fill-opacity="0.5" stroke="#606060" stroke-width=".5" x="0" y="0" width="60" height="60"/>
  <use id="zoomplus" xlink:href="#zoomPlus" x="17" y="9" onmousedown="handleZoom(evt,'in')"/>
  <use id="zoomminus" xlink:href="#zoomMin" x="42" y="9" onmousedown="handleZoom(evt,'out')"/>
  <use id="reset" xlink:href="#resetDef" x="30" y="36" onmousedown="handleReset()"/>
   <use id="arrowup" xlink:href="#arrowUp" x="0" y="0" onmousedown="handlePan(0,-1)"/>
  <use id="arrowright" xlink:href="#arrowRight" x="0" y="0" onmousedown="handlePan(1,0)"/>
  <use id="arrowdown" xlink:href="#arrowDown" x="0" y="0" onmousedown="handlePan(0,1)"/>
  <use id="arrowleft" xlink:href="#arrowLeft" x="0" y="0" onmousedown="handlePan(-1,0)"/>
</g>
<svg viewBox="0 0 15 15" width="100%" height="30px" preserveAspectRatio="xMaxYMin meet">
 <g id="arrow_out" transform="scale(0.3 0.3)">
  <a xlink:href="raw__streamable__overlay_8h__incl_org.svg" target="_base">
   <rect id="button" ry="5" rx="5" y="6" x="6" height="38" width="38"
        fill="#f2f5e9" fill-opacity="0.5" stroke="#606060" stroke-width="1.0"/>
   <path id="arrow"
     d="M 11.500037,31.436501 C 11.940474,20.09759 22.043105,11.32322 32.158766,21.979434 L 37.068811,17.246167 C 37.068811,17.246167 37.088388,32 37.088388,32 L 22.160133,31.978069 C 22.160133,31.978069 26.997745,27.140456 26.997745,27.140456 C 18.528582,18.264221 13.291696,25.230495 11.500037,31.436501 z"
     style="fill:#404040;"/>
  </a>
 </g>
</svg>

<style type='text/css'>
<![CDATA[
[data-mouse-over-selected='false'] { opacity: 0.7; }
[data-mouse-over-selected='true']  { opacity: 1.0; }
]]>
</style>
<script type="application/ecmascript"><![CDATA[
document.addEventListener('DOMContentLoaded', (event) => {
  highlightEdges();
  highlightAdjacentNodes();
});
]]></script>
</svg>
