<?xml version="1.0" encoding="UTF-8" standalone="no"?>
<!DOCTYPE svg PUBLIC "-//W3C//DTD SVG 1.1//EN"
 "http://www.w3.org/Graphics/SVG/1.1/DTD/svg11.dtd">
<!-- Generated by graphviz version 2.43.0 (0)
 -->
<!-- Title: temp_repos/roo_display/src/roo_display/driver/touch_ft6x36.cpp Pages: 1 -->
<!--zoomable 401 -->

<svg id="main" version="1.1" xmlns="http://www.w3.org/2000/svg" xmlns:xlink="http://www.w3.org/1999/xlink" xml:space="preserve" onload="init(evt)">
<style type="text/css"><![CDATA[
.node, .edge {opacity: 0.7;}
.node.selected, .edge.selected {opacity: 1;}
.edge:hover path { stroke: red; }
.edge:hover polygon { stroke: red; fill: red; }
]]></style>

<defs>
  <circle id="rim" cx="0" cy="0" r="7"/>
  <circle id="rim2" cx="0" cy="0" r="3.5"/>
  <g id="zoomPlus">
    <use xlink:href="#rim" fill="#404040"><set attributeName="fill" to="#808080" begin="zoomplus.mouseover" end="zoomplus.mouseout"/></use>
    <path d="M-4,0h8M0,-4v8" fill="none" stroke="white" stroke-width="1.5" pointer-events="none"/>
  </g>
  <g id="zoomMin">
    <use xlink:href="#rim" fill="#404040"><set attributeName="fill" to="#808080" begin="zoomminus.mouseover" end="zoomminus.mouseout"/></use>
    <path d="M-4,0h8" fill="none" stroke="white" stroke-width="1.5" pointer-events="none"/>
  </g>
  <g id="arrowUp" transform="translate(30 24)">
    <use xlink:href="#rim"/>
    <path pointer-events="none" fill="none" stroke="white" stroke-width="1.5" d="M0,-3.0v7 M-2.5,-0.5L0,-3.0L2.5,-0.5"/>
  </g>
  <g id="arrowRight" transform="rotate(90) translate(36 -43)">
    <use xlink:href="#rim"/>
    <path pointer-events="none" fill="none" stroke="white" stroke-width="1.5" d="M0,-3.0v7 M-2.5,-0.5L0,-3.0L2.5,-0.5"/>
  </g>
  <g id="arrowDown" transform="rotate(180) translate(-30 -48)">
    <use xlink:href="#rim"/>
    <path pointer-events="none" fill="none" stroke="white" stroke-width="1.5" d="M0,-3.0v7 M-2.5,-0.5L0,-3.0L2.5,-0.5"/>
  </g>
  <g id="arrowLeft" transform="rotate(270) translate(-36 17)">
    <use xlink:href="#rim"/>
    <path pointer-events="none" fill="none" stroke="white" stroke-width="1.5" d="M0,-3.0v7 M-2.5,-0.5L0,-3.0L2.5,-0.5"/>
  </g>
  <g id="resetDef">
    <use xlink:href="#rim2" fill="#404040"><set attributeName="fill" to="#808080" begin="reset.mouseover" end="reset.mouseout"/></use>
  </g>
</defs>
<script type="application/ecmascript">
var viewWidth = 890;
var viewHeight = 401;
var sectionId = 'dynsection-0';
</script>
<script type="application/ecmascript" xlink:href="svg.min.js"/>
<svg id="graph" class="graph">
<g id="viewport">
<title>temp_repos/roo_display/src/roo_display/driver/touch_ft6x36.cpp</title>
<!-- Node1 -->
<g id="Node000001" class="node">
<title>Node1</title>
<g id="a_Node000001"><a xlink:title=" ">
<polygon fill="#999999" stroke="#666666" points="832.09,-393 698.09,-393 698.09,-352 832.09,-352 832.09,-393"/>
<text text-anchor="start" x="706.09" y="-381" font-family="Helvetica,sans-Serif" font-size="10.00">temp_repos/roo_display</text>
<text text-anchor="start" x="706.09" y="-370" font-family="Helvetica,sans-Serif" font-size="10.00">/src/roo_display/driver</text>
<text text-anchor="middle" x="765.09" y="-359" font-family="Helvetica,sans-Serif" font-size="10.00">/touch_ft6x36.cpp</text>
</a>
</g>
</g>
<!-- Node2 -->
<g id="Node000002" class="node">
<title>Node2</title>
<g id="a_Node000002"><a xlink:href="touch__ft6x36_8h.html" target="_top" xlink:title=" ">
<polygon fill="white" stroke="#666666" points="777.09,-316 673.09,-316 673.09,-286 777.09,-286 777.09,-316"/>
<text text-anchor="start" x="681.09" y="-304" font-family="Helvetica,sans-Serif" font-size="10.00">roo_display/driver</text>
<text text-anchor="middle" x="725.09" y="-293" font-family="Helvetica,sans-Serif" font-size="10.00">/touch_ft6x36.h</text>
</a>
</g>
</g>
<!-- Node1&#45;&gt;Node2 -->
<g id="edge1_Node000001_Node000002" class="edge">
<title>Node1&#45;&gt;Node2</title>
<g id="a_edge1_Node000001_Node000002"><a xlink:title=" ">
<path fill="none" stroke="#63b8ff" d="M753.73,-351.77C748.92,-343.4 743.27,-333.59 738.27,-324.9"/>
<polygon fill="#63b8ff" stroke="#63b8ff" points="741.19,-322.96 733.17,-316.04 735.12,-326.45 741.19,-322.96"/>
</a>
</g>
</g>
<!-- Node21 -->
<g id="Node000021" class="node">
<title>Node21</title>
<g id="a_Node000021"><a xlink:href="i2c_8h.html" target="_top" xlink:title=" ">
<polygon fill="white" stroke="#666666" points="863.59,-244.5 746.59,-244.5 746.59,-225.5 863.59,-225.5 863.59,-244.5"/>
<text text-anchor="middle" x="805.09" y="-232.5" font-family="Helvetica,sans-Serif" font-size="10.00">roo_display/hal/i2c.h</text>
</a>
</g>
</g>
<!-- Node1&#45;&gt;Node21 -->
<g id="edge29_Node000001_Node000021" class="edge">
<title>Node1&#45;&gt;Node21</title>
<g id="a_edge29_Node000001_Node000021"><a xlink:title=" ">
<path fill="none" stroke="#63b8ff" d="M773.2,-351.93C777.38,-341.4 782.38,-328.12 786.09,-316 792.48,-295.15 798.01,-270.7 801.43,-254.37"/>
<polygon fill="#63b8ff" stroke="#63b8ff" points="804.87,-255 803.45,-244.5 798.01,-253.6 804.87,-255"/>
</a>
</g>
</g>
<!-- Node3 -->
<g id="Node000003" class="node">
<title>Node3</title>
<g id="a_Node000003"><a xlink:href="basic__touch_8h.html" target="_top" xlink:title=" ">
<polygon fill="white" stroke="#666666" points="718.09,-250 586.09,-250 586.09,-220 718.09,-220 718.09,-250"/>
<text text-anchor="start" x="594.09" y="-238" font-family="Helvetica,sans-Serif" font-size="10.00">roo_display/driver</text>
<text text-anchor="middle" x="652.09" y="-227" font-family="Helvetica,sans-Serif" font-size="10.00">/common/basic_touch.h</text>
</a>
</g>
</g>
<!-- Node2&#45;&gt;Node3 -->
<g id="edge2_Node000002_Node000003" class="edge">
<title>Node2&#45;&gt;Node3</title>
<g id="a_edge2_Node000002_Node000003"><a xlink:title=" ">
<path fill="none" stroke="#63b8ff" d="M708.89,-285.8C699.25,-277.34 686.84,-266.46 676.08,-257.03"/>
<polygon fill="#63b8ff" stroke="#63b8ff" points="678.07,-254.12 668.25,-250.16 673.46,-259.39 678.07,-254.12"/>
</a>
</g>
</g>
<!-- Node2&#45;&gt;Node21 -->
<g id="edge27_Node000002_Node000021" class="edge">
<title>Node2&#45;&gt;Node21</title>
<g id="a_edge27_Node000002_Node000021"><a xlink:title=" ">
<path fill="none" stroke="#63b8ff" d="M742.84,-285.8C755.68,-275.53 773.01,-261.67 786.12,-251.18"/>
<polygon fill="#63b8ff" stroke="#63b8ff" points="788.41,-253.82 794.03,-244.84 784.04,-248.36 788.41,-253.82"/>
</a>
</g>
</g>
<!-- Node4 -->
<g id="Node000004" class="node">
<title>Node4</title>
<g id="a_Node000004"><a xlink:title=" ">
<polygon fill="#e0e0e0" stroke="#999999" points="754.09,-74 690.09,-74 690.09,-55 754.09,-55 754.09,-74"/>
<text text-anchor="middle" x="722.09" y="-62" font-family="Helvetica,sans-Serif" font-size="10.00">algorithm</text>
</a>
</g>
</g>
<!-- Node3&#45;&gt;Node4 -->
<g id="edge3_Node000003_Node000004" class="edge">
<title>Node3&#45;&gt;Node4</title>
<g id="a_edge3_Node000003_Node000004"><a xlink:title=" ">
<path fill="none" stroke="#63b8ff" d="M671.19,-219.89C681.99,-210.85 694.77,-198.18 702.09,-184 718.77,-151.67 722.01,-108.4 722.37,-84.09"/>
<polygon fill="#63b8ff" stroke="#63b8ff" points="725.87,-84.09 722.38,-74.09 718.87,-84.09 725.87,-84.09"/>
</a>
</g>
</g>
<!-- Node5 -->
<g id="Node000005" class="node">
<title>Node5</title>
<g id="a_Node000005"><a xlink:href="device_8h.html" target="_top" xlink:title=" ">
<polygon fill="white" stroke="#666666" points="482.59,-184 341.59,-184 341.59,-165 482.59,-165 482.59,-184"/>
<text text-anchor="middle" x="412.09" y="-172" font-family="Helvetica,sans-Serif" font-size="10.00">roo_display/core/device.h</text>
</a>
</g>
</g>
<!-- Node3&#45;&gt;Node5 -->
<g id="edge4_Node000003_Node000005" class="edge">
<title>Node3&#45;&gt;Node5</title>
<g id="a_edge4_Node000003_Node000005"><a xlink:title=" ">
<path fill="none" stroke="#63b8ff" d="M594.6,-219.99C552.47,-209.72 496.06,-195.97 457.17,-186.49"/>
<polygon fill="#63b8ff" stroke="#63b8ff" points="457.73,-183.02 447.18,-184.05 456.07,-189.82 457.73,-183.02"/>
</a>
</g>
</g>
<!-- Node19 -->
<g id="Node000019" class="node">
<title>Node19</title>
<g id="a_Node000019"><a xlink:title=" ">
<polygon fill="#e0e0e0" stroke="#999999" points="654.59,-129 585.59,-129 585.59,-110 654.59,-110 654.59,-129"/>
<text text-anchor="middle" x="620.09" y="-117" font-family="Helvetica,sans-Serif" font-size="10.00">roo_time.h</text>
</a>
</g>
</g>
<!-- Node3&#45;&gt;Node19 -->
<g id="edge26_Node000003_Node000019" class="edge">
<title>Node3&#45;&gt;Node19</title>
<g id="a_edge26_Node000003_Node000019"><a xlink:title=" ">
<path fill="none" stroke="#63b8ff" d="M631.2,-219.97C619.99,-211.13 607.24,-198.63 601.09,-184 594.77,-168.95 601.29,-151.08 608.35,-138.14"/>
<polygon fill="#63b8ff" stroke="#63b8ff" points="611.5,-139.7 613.66,-129.33 605.5,-136.09 611.5,-139.7"/>
</a>
</g>
</g>
<!-- Node20 -->
<g id="Node000020" class="node">
<title>Node20</title>
<g id="a_Node000020"><a xlink:title=" ">
<polygon fill="#e0e0e0" stroke="#999999" points="693.59,-184 610.59,-184 610.59,-165 693.59,-165 693.59,-184"/>
<text text-anchor="middle" x="652.09" y="-172" font-family="Helvetica,sans-Serif" font-size="10.00">roo_logging.h</text>
</a>
</g>
</g>
<!-- Node3&#45;&gt;Node20 -->
<g id="edge25_Node000003_Node000020" class="edge">
<title>Node3&#45;&gt;Node20</title>
<g id="a_edge25_Node000003_Node000020"><a xlink:title=" ">
<path fill="none" stroke="#63b8ff" d="M652.09,-219.84C652.09,-212.21 652.09,-202.7 652.09,-194.45"/>
<polygon fill="#63b8ff" stroke="#63b8ff" points="655.59,-194.27 652.09,-184.27 648.59,-194.27 655.59,-194.27"/>
</a>
</g>
</g>
<!-- Node6 -->
<g id="Node000006" class="node">
<title>Node6</title>
<g id="a_Node000006"><a xlink:title=" ">
<polygon fill="#e0e0e0" stroke="#999999" points="170.59,-19 105.59,-19 105.59,0 170.59,0 170.59,-19"/>
<text text-anchor="middle" x="138.09" y="-7" font-family="Helvetica,sans-Serif" font-size="10.00">inttypes.h</text>
</a>
</g>
</g>
<!-- Node5&#45;&gt;Node6 -->
<g id="edge5_Node000005_Node000006" class="edge">
<title>Node5&#45;&gt;Node6</title>
<g id="a_edge5_Node000005_Node000006"><a xlink:title=" ">
<path fill="none" stroke="#63b8ff" d="M341.4,-170.77C231.25,-165.79 28.95,-153.4 7.09,-129 -13.43,-106.1 15.39,-75.65 38.09,-55 54.56,-40.01 76.91,-29.42 96.31,-22.34"/>
<polygon fill="#63b8ff" stroke="#63b8ff" points="97.53,-25.62 105.84,-19.05 95.24,-19.01 97.53,-25.62"/>
</a>
</g>
</g>
<!-- Node7 -->
<g id="Node000007" class="node">
<title>Node7</title>
<g id="a_Node000007"><a xlink:href="blending_8h.html" target="_top" xlink:title=" ">
<polygon fill="white" stroke="#666666" points="384.09,-129 230.09,-129 230.09,-110 384.09,-110 384.09,-129"/>
<text text-anchor="middle" x="307.09" y="-117" font-family="Helvetica,sans-Serif" font-size="10.00">roo_display/color/blending.h</text>
</a>
</g>
</g>
<!-- Node5&#45;&gt;Node7 -->
<g id="edge6_Node000005_Node000007" class="edge">
<title>Node5&#45;&gt;Node7</title>
<g id="a_edge6_Node000005_Node000007"><a xlink:title=" ">
<path fill="none" stroke="#63b8ff" d="M395.22,-164.98C378.48,-156.54 352.59,-143.47 333.2,-133.68"/>
<polygon fill="#63b8ff" stroke="#63b8ff" points="334.77,-130.55 324.27,-129.17 331.62,-136.8 334.77,-130.55"/>
</a>
</g>
</g>
<!-- Node11 -->
<g id="Node000011" class="node">
<title>Node11</title>
<g id="a_Node000011"><a xlink:href="color_8h.html" target="_top" xlink:title=" ">
<polygon fill="white" stroke="#666666" points="671.59,-74 536.59,-74 536.59,-55 671.59,-55 671.59,-74"/>
<text text-anchor="middle" x="604.09" y="-62" font-family="Helvetica,sans-Serif" font-size="10.00">roo_display/color/color.h</text>
</a>
</g>
</g>
<!-- Node5&#45;&gt;Node11 -->
<g id="edge18_Node000005_Node000011" class="edge">
<title>Node5&#45;&gt;Node11</title>
<g id="a_edge18_Node000005_Node000011"><a xlink:title=" ">
<path fill="none" stroke="#63b8ff" d="M412.13,-164.74C412.69,-151.06 415.83,-124.68 431.09,-110 446.45,-95.22 495.21,-83.48 537.06,-75.78"/>
<polygon fill="#63b8ff" stroke="#63b8ff" points="537.75,-79.21 546.97,-74.01 536.51,-72.32 537.75,-79.21"/>
</a>
</g>
</g>
<!-- Node16 -->
<g id="Node000016" class="node">
<title>Node16</title>
<g id="a_Node000016"><a xlink:href="box_8h.html" target="_top" xlink:title=" ">
<polygon fill="white" stroke="#666666" points="567.59,-129 440.59,-129 440.59,-110 567.59,-110 567.59,-129"/>
<text text-anchor="middle" x="504.09" y="-117" font-family="Helvetica,sans-Serif" font-size="10.00">roo_display/core/box.h</text>
</a>
</g>
</g>
<!-- Node5&#45;&gt;Node16 -->
<g id="edge19_Node000005_Node000016" class="edge">
<title>Node5&#45;&gt;Node16</title>
<g id="a_edge19_Node000005_Node000016"><a xlink:title=" ">
<path fill="none" stroke="#63b8ff" d="M426.87,-164.98C441.27,-156.69 463.4,-143.94 480.28,-134.22"/>
<polygon fill="#63b8ff" stroke="#63b8ff" points="482.12,-137.19 489.04,-129.17 478.63,-131.13 482.12,-137.19"/>
</a>
</g>
</g>
<!-- Node17 -->
<g id="Node000017" class="node">
<title>Node17</title>
<g id="a_Node000017"><a xlink:href="orientation_8h.html" target="_top" xlink:title=" ">
<polygon fill="white" stroke="#666666" points="178.09,-129 16.09,-129 16.09,-110 178.09,-110 178.09,-129"/>
<text text-anchor="middle" x="97.09" y="-117" font-family="Helvetica,sans-Serif" font-size="10.00">roo_display/core/orientation.h</text>
</a>
</g>
</g>
<!-- Node5&#45;&gt;Node17 -->
<g id="edge21_Node000005_Node000017" class="edge">
<title>Node5&#45;&gt;Node17</title>
<g id="a_edge21_Node000005_Node000017"><a xlink:title=" ">
<path fill="none" stroke="#63b8ff" d="M361.48,-164.98C305.99,-155.65 217,-140.67 157.8,-130.71"/>
<polygon fill="#63b8ff" stroke="#63b8ff" points="158.28,-127.25 147.84,-129.04 157.12,-134.15 158.28,-127.25"/>
</a>
</g>
</g>
<!-- Node5&#45;&gt;Node19 -->
<g id="edge24_Node000005_Node000019" class="edge">
<title>Node5&#45;&gt;Node19</title>
<g id="a_edge24_Node000005_Node000019"><a xlink:title=" ">
<path fill="none" stroke="#63b8ff" d="M445.51,-164.98C481.03,-155.93 537.36,-141.58 576.39,-131.64"/>
<polygon fill="#63b8ff" stroke="#63b8ff" points="577.58,-134.94 586.41,-129.08 575.85,-128.16 577.58,-134.94"/>
</a>
</g>
</g>
<!-- Node7&#45;&gt;Node6 -->
<g id="edge7_Node000007_Node000006" class="edge">
<title>Node7&#45;&gt;Node6</title>
<g id="a_edge7_Node000007_Node000006"><a xlink:title=" ">
<path fill="none" stroke="#63b8ff" d="M230.07,-110.62C203.96,-104.39 176.51,-93.38 157.09,-74 145.26,-62.2 140.74,-43.36 139.04,-29.26"/>
<polygon fill="#63b8ff" stroke="#63b8ff" points="142.52,-28.87 138.2,-19.19 135.54,-29.45 142.52,-28.87"/>
</a>
</g>
</g>
<!-- Node8 -->
<g id="Node000008" class="node">
<title>Node8</title>
<g id="a_Node000008"><a xlink:title=" ">
<polygon fill="#e0e0e0" stroke="#999999" points="213.59,-74 166.59,-74 166.59,-55 213.59,-55 213.59,-74"/>
<text text-anchor="middle" x="190.09" y="-62" font-family="Helvetica,sans-Serif" font-size="10.00">cmath</text>
</a>
</g>
</g>
<!-- Node7&#45;&gt;Node8 -->
<g id="edge8_Node000007_Node000008" class="edge">
<title>Node7&#45;&gt;Node8</title>
<g id="a_edge8_Node000007_Node000008"><a xlink:title=" ">
<path fill="none" stroke="#63b8ff" d="M288.29,-109.98C269.47,-101.46 240.27,-88.23 218.59,-78.41"/>
<polygon fill="#63b8ff" stroke="#63b8ff" points="219.78,-75.11 209.23,-74.17 216.89,-81.48 219.78,-75.11"/>
</a>
</g>
</g>
<!-- Node9 -->
<g id="Node000009" class="node">
<title>Node9</title>
<g id="a_Node000009"><a xlink:title=" ">
<polygon fill="#e0e0e0" stroke="#999999" points="300.59,-74 231.59,-74 231.59,-55 300.59,-55 300.59,-74"/>
<text text-anchor="middle" x="266.09" y="-62" font-family="Helvetica,sans-Serif" font-size="10.00">type_traits</text>
</a>
</g>
</g>
<!-- Node7&#45;&gt;Node9 -->
<g id="edge9_Node000007_Node000009" class="edge">
<title>Node7&#45;&gt;Node9</title>
<g id="a_edge9_Node000007_Node000009"><a xlink:title=" ">
<path fill="none" stroke="#63b8ff" d="M300.32,-109.75C294.53,-102.26 286.03,-91.28 278.95,-82.13"/>
<polygon fill="#63b8ff" stroke="#63b8ff" points="281.62,-79.86 272.73,-74.09 276.08,-84.14 281.62,-79.86"/>
</a>
</g>
</g>
<!-- Node10 -->
<g id="Node000010" class="node">
<title>Node10</title>
<g id="a_Node000010"><a xlink:title=" ">
<polygon fill="#e0e0e0" stroke="#999999" points="363.59,-74 318.59,-74 318.59,-55 363.59,-55 363.59,-74"/>
<text text-anchor="middle" x="341.09" y="-62" font-family="Helvetica,sans-Serif" font-size="10.00">utility</text>
</a>
</g>
</g>
<!-- Node7&#45;&gt;Node10 -->
<g id="edge10_Node000007_Node000010" class="edge">
<title>Node7&#45;&gt;Node10</title>
<g id="a_edge10_Node000007_Node000010"><a xlink:title=" ">
<path fill="none" stroke="#63b8ff" d="M312.7,-109.75C317.41,-102.42 324.26,-91.73 330.06,-82.7"/>
<polygon fill="#63b8ff" stroke="#63b8ff" points="333.13,-84.4 335.58,-74.09 327.23,-80.62 333.13,-84.4"/>
</a>
</g>
</g>
<!-- Node7&#45;&gt;Node11 -->
<g id="edge11_Node000007_Node000011" class="edge">
<title>Node7&#45;&gt;Node11</title>
<g id="a_edge11_Node000007_Node000011"><a xlink:title=" ">
<path fill="none" stroke="#63b8ff" d="M354.81,-109.98C406.83,-100.7 490.09,-85.84 545.91,-75.88"/>
<polygon fill="#63b8ff" stroke="#63b8ff" points="546.77,-79.28 556,-74.08 545.54,-72.39 546.77,-79.28"/>
</a>
</g>
</g>
<!-- Node15 -->
<g id="Node000015" class="node">
<title>Node15</title>
<g id="a_Node000015"><a xlink:href="traits_8h.html" target="_top" xlink:title=" ">
<polygon fill="white" stroke="#666666" points="518.59,-74 381.59,-74 381.59,-55 518.59,-55 518.59,-74"/>
<text text-anchor="middle" x="450.09" y="-62" font-family="Helvetica,sans-Serif" font-size="10.00">roo_display/color/traits.h</text>
</a>
</g>
</g>
<!-- Node7&#45;&gt;Node15 -->
<g id="edge16_Node000007_Node000015" class="edge">
<title>Node7&#45;&gt;Node15</title>
<g id="a_edge16_Node000007_Node000015"><a xlink:title=" ">
<path fill="none" stroke="#63b8ff" d="M330.07,-109.98C353.59,-101.27 390.38,-87.63 417.03,-77.75"/>
<polygon fill="#63b8ff" stroke="#63b8ff" points="418.54,-80.93 426.7,-74.17 416.1,-74.36 418.54,-80.93"/>
</a>
</g>
</g>
<!-- Node11&#45;&gt;Node6 -->
<g id="edge12_Node000011_Node000006" class="edge">
<title>Node11&#45;&gt;Node6</title>
<g id="a_edge12_Node000011_Node000006"><a xlink:title=" ">
<path fill="none" stroke="#63b8ff" d="M536.33,-55.79C438.97,-44.72 262.31,-24.63 181.07,-15.39"/>
<polygon fill="#63b8ff" stroke="#63b8ff" points="181.05,-11.86 170.72,-14.21 180.26,-18.82 181.05,-11.86"/>
</a>
</g>
</g>
<!-- Node12 -->
<g id="Node000012" class="node">
<title>Node12</title>
<g id="a_Node000012"><a xlink:title=" ">
<polygon fill="#e0e0e0" stroke="#999999" points="736.09,-19 680.09,-19 680.09,0 736.09,0 736.09,-19"/>
<text text-anchor="middle" x="708.09" y="-7" font-family="Helvetica,sans-Serif" font-size="10.00">roo_io.h</text>
</a>
</g>
</g>
<!-- Node11&#45;&gt;Node12 -->
<g id="edge13_Node000011_Node000012" class="edge">
<title>Node11&#45;&gt;Node12</title>
<g id="a_edge13_Node000011_Node000012"><a xlink:title=" ">
<path fill="none" stroke="#63b8ff" d="M620.8,-54.98C637.3,-46.57 662.79,-33.59 681.97,-23.81"/>
<polygon fill="#63b8ff" stroke="#63b8ff" points="683.76,-26.83 691.08,-19.17 680.58,-20.59 683.76,-26.83"/>
</a>
</g>
</g>
<!-- Node13 -->
<g id="Node000013" class="node">
<title>Node13</title>
<g id="a_Node000013"><a xlink:title=" ">
<polygon fill="#e0e0e0" stroke="#999999" points="528.09,-19 414.09,-19 414.09,0 528.09,0 528.09,-19"/>
<text text-anchor="middle" x="471.09" y="-7" font-family="Helvetica,sans-Serif" font-size="10.00">roo_backport/byte.h</text>
</a>
</g>
</g>
<!-- Node11&#45;&gt;Node13 -->
<g id="edge14_Node000011_Node000013" class="edge">
<title>Node11&#45;&gt;Node13</title>
<g id="a_edge14_Node000011_Node000013"><a xlink:title=" ">
<path fill="none" stroke="#63b8ff" d="M582.72,-54.98C560.94,-46.3 526.93,-32.75 502.17,-22.88"/>
<polygon fill="#63b8ff" stroke="#63b8ff" points="503.43,-19.62 492.85,-19.17 500.84,-26.12 503.43,-19.62"/>
</a>
</g>
</g>
<!-- Node14 -->
<g id="Node000014" class="node">
<title>Node14</title>
<g id="a_Node000014"><a xlink:title=" ">
<polygon fill="#e0e0e0" stroke="#999999" points="661.59,-19 546.59,-19 546.59,0 661.59,0 661.59,-19"/>
<text text-anchor="middle" x="604.09" y="-7" font-family="Helvetica,sans-Serif" font-size="10.00">roo_io/memory/fill.h</text>
</a>
</g>
</g>
<!-- Node11&#45;&gt;Node14 -->
<g id="edge15_Node000011_Node000014" class="edge">
<title>Node11&#45;&gt;Node14</title>
<g id="a_edge15_Node000011_Node000014"><a xlink:title=" ">
<path fill="none" stroke="#63b8ff" d="M604.09,-54.75C604.09,-47.8 604.09,-37.85 604.09,-29.13"/>
<polygon fill="#63b8ff" stroke="#63b8ff" points="607.59,-29.09 604.09,-19.09 600.59,-29.09 607.59,-29.09"/>
</a>
</g>
</g>
<!-- Node15&#45;&gt;Node6 -->
<g id="edge17_Node000015_Node000006" class="edge">
<title>Node15&#45;&gt;Node6</title>
<g id="a_edge17_Node000015_Node000006"><a xlink:title=" ">
<path fill="none" stroke="#63b8ff" d="M399.96,-54.98C339.31,-44.68 238.24,-27.51 181.02,-17.79"/>
<polygon fill="#63b8ff" stroke="#63b8ff" points="181.31,-14.29 170.87,-16.07 180.14,-21.19 181.31,-14.29"/>
</a>
</g>
</g>
<!-- Node16&#45;&gt;Node4 -->
<g id="edge20_Node000016_Node000004" class="edge">
<title>Node16&#45;&gt;Node4</title>
<g id="a_edge20_Node000016_Node000004"><a xlink:title=" ">
<path fill="none" stroke="#63b8ff" d="M539.12,-109.98C577.51,-100.65 639.08,-85.68 680.05,-75.72"/>
<polygon fill="#63b8ff" stroke="#63b8ff" points="681.1,-79.07 689.99,-73.3 679.45,-72.26 681.1,-79.07"/>
</a>
</g>
</g>
<!-- Node17&#45;&gt;Node6 -->
<g id="edge23_Node000017_Node000006" class="edge">
<title>Node17&#45;&gt;Node6</title>
<g id="a_edge23_Node000017_Node000006"><a xlink:title=" ">
<path fill="none" stroke="#63b8ff" d="M81.11,-109.99C61.31,-98.27 31.72,-76.22 45.09,-55 56.3,-37.2 76.82,-26.37 95.73,-19.85"/>
<polygon fill="#63b8ff" stroke="#63b8ff" points="96.92,-23.15 105.42,-16.83 94.83,-16.47 96.92,-23.15"/>
</a>
</g>
</g>
<!-- Node18 -->
<g id="Node000018" class="node">
<title>Node18</title>
<g id="a_Node000018"><a xlink:title=" ">
<polygon fill="#e0e0e0" stroke="#999999" points="110.09,-74 54.09,-74 54.09,-55 110.09,-55 110.09,-74"/>
<text text-anchor="middle" x="82.09" y="-62" font-family="Helvetica,sans-Serif" font-size="10.00">assert.h</text>
</a>
</g>
</g>
<!-- Node17&#45;&gt;Node18 -->
<g id="edge22_Node000017_Node000018" class="edge">
<title>Node17&#45;&gt;Node18</title>
<g id="a_edge22_Node000017_Node000018"><a xlink:title=" ">
<path fill="none" stroke="#63b8ff" d="M94.61,-109.75C92.63,-102.72 89.77,-92.62 87.28,-83.84"/>
<polygon fill="#63b8ff" stroke="#63b8ff" points="90.61,-82.76 84.52,-74.09 83.88,-84.66 90.61,-82.76"/>
</a>
</g>
</g>
<!-- Node22 -->
<g id="Node000022" class="node">
<title>Node22</title>
<g id="a_Node000022"><a xlink:href="config_8h.html" target="_top" xlink:title=" ">
<polygon fill="white" stroke="#666666" points="882.09,-184 750.09,-184 750.09,-165 882.09,-165 882.09,-184"/>
<text text-anchor="middle" x="816.09" y="-172" font-family="Helvetica,sans-Serif" font-size="10.00">roo_display/hal/config.h</text>
</a>
</g>
</g>
<!-- Node21&#45;&gt;Node22 -->
<g id="edge28_Node000021_Node000022" class="edge">
<title>Node21&#45;&gt;Node22</title>
<g id="a_edge28_Node000021_Node000022"><a xlink:title=" ">
<path fill="none" stroke="#63b8ff" d="M806.71,-225.37C808.26,-217.16 810.63,-204.54 812.6,-194.05"/>
<polygon fill="#63b8ff" stroke="#63b8ff" points="816.05,-194.64 814.46,-184.17 809.17,-193.35 816.05,-194.64"/>
</a>
</g>
</g>
</g>
</svg>

<g id="navigator" transform="translate(0 0)" fill="#404254">
  <rect fill="#f2f5e9" fill-opacity="0.5" stroke="#606060" stroke-width=".5" x="0" y="0" width="60" height="60"/>
  <use id="zoomplus" xlink:href="#zoomPlus" x="17" y="9" onmousedown="handleZoom(evt,'in')"/>
  <use id="zoomminus" xlink:href="#zoomMin" x="42" y="9" onmousedown="handleZoom(evt,'out')"/>
  <use id="reset" xlink:href="#resetDef" x="30" y="36" onmousedown="handleReset()"/>
   <use id="arrowup" xlink:href="#arrowUp" x="0" y="0" onmousedown="handlePan(0,-1)"/>
  <use id="arrowright" xlink:href="#arrowRight" x="0" y="0" onmousedown="handlePan(1,0)"/>
  <use id="arrowdown" xlink:href="#arrowDown" x="0" y="0" onmousedown="handlePan(0,1)"/>
  <use id="arrowleft" xlink:href="#arrowLeft" x="0" y="0" onmousedown="handlePan(-1,0)"/>
</g>
<svg viewBox="0 0 15 15" width="100%" height="30px" preserveAspectRatio="xMaxYMin meet">
 <g id="arrow_out" transform="scale(0.3 0.3)">
  <a xlink:href="touch__ft6x36_8cpp__incl_org.svg" target="_base">
   <rect id="button" ry="5" rx="5" y="6" x="6" height="38" width="38"
        fill="#f2f5e9" fill-opacity="0.5" stroke="#606060" stroke-width="1.0"/>
   <path id="arrow"
     d="M 11.500037,31.436501 C 11.940474,20.09759 22.043105,11.32322 32.158766,21.979434 L 37.068811,17.246167 C 37.068811,17.246167 37.088388,32 37.088388,32 L 22.160133,31.978069 C 22.160133,31.978069 26.997745,27.140456 26.997745,27.140456 C 18.528582,18.264221 13.291696,25.230495 11.500037,31.436501 z"
     style="fill:#404040;"/>
  </a>
 </g>
</svg>

<style type='text/css'>
<![CDATA[
[data-mouse-over-selected='false'] { opacity: 0.7; }
[data-mouse-over-selected='true']  { opacity: 1.0; }
]]>
</style>
<script type="application/ecmascript"><![CDATA[
document.addEventListener('DOMContentLoaded', (event) => {
  highlightEdges();
  highlightAdjacentNodes();
});
]]></script>
</svg>
