<?xml version="1.0" encoding="UTF-8" standalone="no"?>
<!DOCTYPE svg PUBLIC "-//W3C//DTD SVG 1.1//EN"
 "http://www.w3.org/Graphics/SVG/1.1/DTD/svg11.dtd">
<!-- Generated by graphviz version 2.43.0 (0)
 -->
<!-- Title: roo_io::OutputStream Pages: 1 -->
<svg width="329pt" height="113pt"
 viewBox="0.00 0.00 329.00 112.50" xmlns="http://www.w3.org/2000/svg" xmlns:xlink="http://www.w3.org/1999/xlink">

<svg id="main" version="1.1" xmlns="http://www.w3.org/2000/svg" xmlns:xlink="http://www.w3.org/1999/xlink" xml:space="preserve" onload="init(evt)">
<style type="text/css"><![CDATA[
.node, .edge {opacity: 0.7;}
.node.selected, .edge.selected {opacity: 1;}
.edge:hover path { stroke: red; }
.edge:hover polygon { stroke: red; fill: red; }
]]></style>
<script type="application/ecmascript" xlink:href="svg.min.js"/>
<svg id="graph" class="graph">
<g id="graph0" class="graph" transform="scale(1 1) rotate(0) translate(4 108.5)">
<title>roo_io::OutputStream</title>
<!-- Node1 -->
<g id="Node000001" class="node">
<title>Node1</title>
<g id="a_Node000001"><a xlink:title=" ">
<polygon fill="#999999" stroke="#666666" points="121,-56 0,-56 0,-37 121,-37 121,-56"/>
<text text-anchor="middle" x="60.5" y="-44" font-family="Helvetica,sans-Serif" font-size="10.00">roo_io::OutputStream</text>
</a>
</g>
</g>
<!-- Node2 -->
<g id="Node000002" class="node">
<title>Node2</title>
<g id="a_Node000002"><a xlink:href="classroo__io_1_1MemoryOutputStream.html" target="_top" xlink:title=" ">
<polygon fill="white" stroke="#666666" points="319.5,-104.5 158.5,-104.5 158.5,-74.5 319.5,-74.5 319.5,-104.5"/>
<text text-anchor="start" x="166.5" y="-92.5" font-family="Helvetica,sans-Serif" font-size="10.00">roo_io::MemoryOutputStream</text>
<text text-anchor="middle" x="239" y="-81.5" font-family="Helvetica,sans-Serif" font-size="10.00">&lt; PtrType &gt;</text>
</a>
</g>
</g>
<!-- Node1&#45;&gt;Node2 -->
<g id="edge1_Node000001_Node000002" class="edge">
<title>Node1&#45;&gt;Node2</title>
<g id="a_edge1_Node000001_Node000002"><a xlink:title=" ">
<path fill="none" stroke="#63b8ff" d="M110.39,-58.41C130.82,-63.39 154.79,-69.23 176.4,-74.49"/>
<polygon fill="#63b8ff" stroke="#63b8ff" points="111.22,-55.01 100.67,-56.04 109.56,-61.81 111.22,-55.01"/>
</a>
</g>
</g>
<!-- Node3 -->
<g id="Node000003" class="node">
<title>Node3</title>
<g id="a_Node000003"><a xlink:href="classroo__io_1_1NullOutputStream.html" target="_top" xlink:title=" ">
<polygon fill="white" stroke="#666666" points="309,-56 169,-56 169,-37 309,-37 309,-56"/>
<text text-anchor="middle" x="239" y="-44" font-family="Helvetica,sans-Serif" font-size="10.00">roo_io::NullOutputStream</text>
</a>
</g>
</g>
<!-- Node1&#45;&gt;Node3 -->
<g id="edge2_Node000001_Node000003" class="edge">
<title>Node1&#45;&gt;Node3</title>
<g id="a_edge2_Node000001_Node000003"><a xlink:title=" ">
<path fill="none" stroke="#63b8ff" d="M131.46,-46.5C143.77,-46.5 156.58,-46.5 168.87,-46.5"/>
<polygon fill="#63b8ff" stroke="#63b8ff" points="131.25,-43 121.25,-46.5 131.25,-50 131.25,-43"/>
</a>
</g>
</g>
<!-- Node4 -->
<g id="Node000004" class="node">
<title>Node4</title>
<g id="a_Node000004"><a xlink:href="classroo__io_1_1RingPipeOutputStream.html" target="_top" xlink:title=" ">
<polygon fill="white" stroke="#666666" points="321,-19 157,-19 157,0 321,0 321,-19"/>
<text text-anchor="middle" x="239" y="-7" font-family="Helvetica,sans-Serif" font-size="10.00">roo_io::RingPipeOutputStream</text>
</a>
</g>
</g>
<!-- Node1&#45;&gt;Node4 -->
<g id="edge3_Node000001_Node000004" class="edge">
<title>Node1&#45;&gt;Node4</title>
<g id="a_edge3_Node000001_Node000004"><a xlink:title=" ">
<path fill="none" stroke="#63b8ff" d="M116.76,-34.92C141.08,-29.82 169.3,-23.9 192.39,-19.06"/>
<polygon fill="#63b8ff" stroke="#63b8ff" points="116.02,-31.49 106.95,-36.97 117.46,-38.35 116.02,-31.49"/>
</a>
</g>
</g>
</g>
</svg>
</svg>

<style type='text/css'>
<![CDATA[
[data-mouse-over-selected='false'] { opacity: 0.7; }
[data-mouse-over-selected='true']  { opacity: 1.0; }
]]>
</style>
<script type="application/ecmascript"><![CDATA[
document.addEventListener('DOMContentLoaded', (event) => {
  highlightEdges();
  highlightAdjacentNodes();
});
]]></script>
</svg>
