<?xml version="1.0" encoding="UTF-8" standalone="no"?>
<!DOCTYPE svg PUBLIC "-//W3C//DTD SVG 1.1//EN"
 "http://www.w3.org/Graphics/SVG/1.1/DTD/svg11.dtd">
<!-- Generated by graphviz version 2.43.0 (0)
 -->
<!-- Title: temp_repos/roo_io/src/roo_io/fs/filesystem.h Pages: 1 -->
<!--zoomable 379 -->

<svg id="main" version="1.1" xmlns="http://www.w3.org/2000/svg" xmlns:xlink="http://www.w3.org/1999/xlink" xml:space="preserve" onload="init(evt)">
<style type="text/css"><![CDATA[
.node, .edge {opacity: 0.7;}
.node.selected, .edge.selected {opacity: 1;}
.edge:hover path { stroke: red; }
.edge:hover polygon { stroke: red; fill: red; }
]]></style>

<defs>
  <circle id="rim" cx="0" cy="0" r="7"/>
  <circle id="rim2" cx="0" cy="0" r="3.5"/>
  <g id="zoomPlus">
    <use xlink:href="#rim" fill="#404040"><set attributeName="fill" to="#808080" begin="zoomplus.mouseover" end="zoomplus.mouseout"/></use>
    <path d="M-4,0h8M0,-4v8" fill="none" stroke="white" stroke-width="1.5" pointer-events="none"/>
  </g>
  <g id="zoomMin">
    <use xlink:href="#rim" fill="#404040"><set attributeName="fill" to="#808080" begin="zoomminus.mouseover" end="zoomminus.mouseout"/></use>
    <path d="M-4,0h8" fill="none" stroke="white" stroke-width="1.5" pointer-events="none"/>
  </g>
  <g id="arrowUp" transform="translate(30 24)">
    <use xlink:href="#rim"/>
    <path pointer-events="none" fill="none" stroke="white" stroke-width="1.5" d="M0,-3.0v7 M-2.5,-0.5L0,-3.0L2.5,-0.5"/>
  </g>
  <g id="arrowRight" transform="rotate(90) translate(36 -43)">
    <use xlink:href="#rim"/>
    <path pointer-events="none" fill="none" stroke="white" stroke-width="1.5" d="M0,-3.0v7 M-2.5,-0.5L0,-3.0L2.5,-0.5"/>
  </g>
  <g id="arrowDown" transform="rotate(180) translate(-30 -48)">
    <use xlink:href="#rim"/>
    <path pointer-events="none" fill="none" stroke="white" stroke-width="1.5" d="M0,-3.0v7 M-2.5,-0.5L0,-3.0L2.5,-0.5"/>
  </g>
  <g id="arrowLeft" transform="rotate(270) translate(-36 17)">
    <use xlink:href="#rim"/>
    <path pointer-events="none" fill="none" stroke="white" stroke-width="1.5" d="M0,-3.0v7 M-2.5,-0.5L0,-3.0L2.5,-0.5"/>
  </g>
  <g id="resetDef">
    <use xlink:href="#rim2" fill="#404040"><set attributeName="fill" to="#808080" begin="reset.mouseover" end="reset.mouseout"/></use>
  </g>
</defs>
<script type="application/ecmascript">
var viewWidth = 975;
var viewHeight = 379;
var sectionId = 'dynsection-0';
</script>
<script type="application/ecmascript" xlink:href="svg.min.js"/>
<svg id="graph" class="graph">
<g id="viewport">
<title>temp_repos/roo_io/src/roo_io/fs/filesystem.h</title>
<!-- Node1 -->
<g id="Node000001" class="node">
<title>Node1</title>
<g id="a_Node000001"><a xlink:title=" ">
<polygon fill="#999999" stroke="#666666" points="214.5,-371 89.5,-371 89.5,-341 214.5,-341 214.5,-371"/>
<text text-anchor="start" x="97.5" y="-359" font-family="Helvetica,sans-Serif" font-size="10.00">temp_repos/roo_io/src</text>
<text text-anchor="middle" x="152" y="-348" font-family="Helvetica,sans-Serif" font-size="10.00">/roo_io/fs/filesystem.h</text>
</a>
</g>
</g>
<!-- Node2 -->
<g id="Node000002" class="node">
<title>Node2</title>
<g id="a_Node000002"><a xlink:title=" ">
<polygon fill="#e0e0e0" stroke="#999999" points="110,-74 52,-74 52,-55 110,-55 110,-74"/>
<text text-anchor="middle" x="81" y="-62" font-family="Helvetica,sans-Serif" font-size="10.00">memory</text>
</a>
</g>
</g>
<!-- Node1&#45;&gt;Node2 -->
<g id="edge1_Node000001_Node000002" class="edge">
<title>Node1&#45;&gt;Node2</title>
<g id="a_edge1_Node000001_Node000002"><a xlink:title=" ">
<path fill="none" stroke="#63b8ff" d="M102.65,-340.87C58.27,-324.77 0,-293.7 0,-241.5 0,-241.5 0,-241.5 0,-179 0,-137.21 36.84,-100.16 60.83,-80.47"/>
<polygon fill="#63b8ff" stroke="#63b8ff" points="63.02,-83.2 68.7,-74.25 58.68,-77.71 63.02,-83.2"/>
</a>
</g>
</g>
<!-- Node3 -->
<g id="Node000003" class="node">
<title>Node3</title>
<g id="a_Node000003"><a xlink:href="directory_8h.html" target="_top" xlink:title=" ">
<polygon fill="white" stroke="#666666" points="179.5,-129 66.5,-129 66.5,-110 179.5,-110 179.5,-129"/>
<text text-anchor="middle" x="123" y="-117" font-family="Helvetica,sans-Serif" font-size="10.00">roo_io/fs/directory.h</text>
</a>
</g>
</g>
<!-- Node1&#45;&gt;Node3 -->
<g id="edge2_Node000001_Node000003" class="edge">
<title>Node1&#45;&gt;Node3</title>
<g id="a_edge2_Node000001_Node000003"><a xlink:title=" ">
<path fill="none" stroke="#63b8ff" d="M147.22,-340.73C144.09,-330.82 140.19,-317.25 138,-305 127.27,-245.01 124.2,-172.65 123.34,-139.17"/>
<polygon fill="#63b8ff" stroke="#63b8ff" points="126.83,-138.95 123.11,-129.03 119.84,-139.11 126.83,-138.95"/>
</a>
</g>
</g>
<!-- Node4 -->
<g id="Node000004" class="node">
<title>Node4</title>
<g id="a_Node000004"><a xlink:href="status_8h.html" target="_top" xlink:title=" ">
<polygon fill="white" stroke="#666666" points="384.5,-74 295.5,-74 295.5,-55 384.5,-55 384.5,-74"/>
<text text-anchor="middle" x="340" y="-62" font-family="Helvetica,sans-Serif" font-size="10.00">roo_io/status.h</text>
</a>
</g>
</g>
<!-- Node1&#45;&gt;Node4 -->
<g id="edge35_Node000001_Node000004" class="edge">
<title>Node1&#45;&gt;Node4</title>
<g id="a_edge35_Node000001_Node000004"><a xlink:title=" ">
<path fill="none" stroke="#63b8ff" d="M149.46,-340.73C144.28,-307.09 135.82,-221.39 172,-165 201.53,-118.97 260.56,-91.44 300.18,-77.37"/>
<polygon fill="#63b8ff" stroke="#63b8ff" points="301.48,-80.63 309.81,-74.08 299.21,-74.01 301.48,-80.63"/>
</a>
</g>
</g>
<!-- Node6 -->
<g id="Node000006" class="node">
<title>Node6</title>
<g id="a_Node000006"><a xlink:href="mount_8h.html" target="_top" xlink:title=" ">
<polygon fill="white" stroke="#666666" points="282,-305 180,-305 180,-286 282,-286 282,-305"/>
<text text-anchor="middle" x="231" y="-293" font-family="Helvetica,sans-Serif" font-size="10.00">roo_io/fs/mount.h</text>
</a>
</g>
</g>
<!-- Node1&#45;&gt;Node6 -->
<g id="edge6_Node000001_Node000006" class="edge">
<title>Node1&#45;&gt;Node6</title>
<g id="a_edge6_Node000001_Node000006"><a xlink:title=" ">
<path fill="none" stroke="#63b8ff" d="M171.12,-340.84C183.18,-331.91 198.71,-320.41 210.94,-311.35"/>
<polygon fill="#63b8ff" stroke="#63b8ff" points="213.21,-314.03 219.16,-305.27 209.04,-308.4 213.21,-314.03"/>
</a>
</g>
</g>
<!-- Node15 -->
<g id="Node000015" class="node">
<title>Node15</title>
<g id="a_Node000015"><a xlink:href="mount__impl_8h.html" target="_top" xlink:title=" ">
<polygon fill="white" stroke="#666666" points="525.5,-250 396.5,-250 396.5,-231 525.5,-231 525.5,-250"/>
<text text-anchor="middle" x="461" y="-238" font-family="Helvetica,sans-Serif" font-size="10.00">roo_io/fs/mount_impl.h</text>
</a>
</g>
</g>
<!-- Node1&#45;&gt;Node15 -->
<g id="edge34_Node000001_Node000015" class="edge">
<title>Node1&#45;&gt;Node15</title>
<g id="a_edge34_Node000001_Node000015"><a xlink:title=" ">
<path fill="none" stroke="#63b8ff" d="M191.59,-340.9C219.43,-330.96 257.53,-317.27 291,-305 339.19,-287.33 394.9,-266.43 429.03,-253.57"/>
<polygon fill="#63b8ff" stroke="#63b8ff" points="430.36,-256.81 438.48,-250.01 427.89,-250.26 430.36,-256.81"/>
</a>
</g>
</g>
<!-- Node3&#45;&gt;Node2 -->
<g id="edge3_Node000003_Node000002" class="edge">
<title>Node3&#45;&gt;Node2</title>
<g id="a_edge3_Node000003_Node000002"><a xlink:title=" ">
<path fill="none" stroke="#63b8ff" d="M116.06,-109.75C110.13,-102.26 101.43,-91.28 94.18,-82.13"/>
<polygon fill="#63b8ff" stroke="#63b8ff" points="96.76,-79.75 87.81,-74.09 91.27,-84.1 96.76,-79.75"/>
</a>
</g>
</g>
<!-- Node3&#45;&gt;Node4 -->
<g id="edge4_Node000003_Node000004" class="edge">
<title>Node3&#45;&gt;Node4</title>
<g id="a_edge4_Node000003_Node000004"><a xlink:title=" ">
<path fill="none" stroke="#63b8ff" d="M157.86,-109.98C195.09,-100.89 254.2,-86.46 294.93,-76.51"/>
<polygon fill="#63b8ff" stroke="#63b8ff" points="295.98,-79.85 304.86,-74.08 294.32,-73.05 295.98,-79.85"/>
</a>
</g>
</g>
<!-- Node5 -->
<g id="Node000005" class="node">
<title>Node5</title>
<g id="a_Node000005"><a xlink:title=" ">
<polygon fill="#e0e0e0" stroke="#999999" points="381.5,-19 298.5,-19 298.5,0 381.5,0 381.5,-19"/>
<text text-anchor="middle" x="340" y="-7" font-family="Helvetica,sans-Serif" font-size="10.00">roo_logging.h</text>
</a>
</g>
</g>
<!-- Node4&#45;&gt;Node5 -->
<g id="edge5_Node000004_Node000005" class="edge">
<title>Node4&#45;&gt;Node5</title>
<g id="a_edge5_Node000004_Node000005"><a xlink:title=" ">
<path fill="none" stroke="#63b8ff" d="M340,-54.75C340,-47.8 340,-37.85 340,-29.13"/>
<polygon fill="#63b8ff" stroke="#63b8ff" points="343.5,-29.09 340,-19.09 336.5,-29.09 343.5,-29.09"/>
</a>
</g>
</g>
<!-- Node6&#45;&gt;Node2 -->
<g id="edge7_Node000006_Node000002" class="edge">
<title>Node6&#45;&gt;Node2</title>
<g id="a_edge7_Node000006_Node000002"><a xlink:title=" ">
<path fill="none" stroke="#63b8ff" d="M215.47,-285.85C179.34,-264.69 90.2,-206.4 57,-129 50.35,-113.49 58.65,-95.45 67.26,-82.58"/>
<polygon fill="#63b8ff" stroke="#63b8ff" points="70.29,-84.36 73.37,-74.22 64.64,-80.23 70.29,-84.36"/>
</a>
</g>
</g>
<!-- Node6&#45;&gt;Node3 -->
<g id="edge20_Node000006_Node000003" class="edge">
<title>Node6&#45;&gt;Node3</title>
<g id="a_edge20_Node000006_Node000003"><a xlink:title=" ">
<path fill="none" stroke="#63b8ff" d="M225.5,-285.63C208.45,-258.17 156.32,-174.18 133.68,-137.71"/>
<polygon fill="#63b8ff" stroke="#63b8ff" points="136.61,-135.79 128.36,-129.14 130.66,-139.49 136.61,-135.79"/>
</a>
</g>
</g>
<!-- Node7 -->
<g id="Node000007" class="node">
<title>Node7</title>
<g id="a_Node000007"><a xlink:href="multipass__input__stream_8h.html" target="_top" xlink:title=" ">
<polygon fill="white" stroke="#666666" points="951,-195 829,-195 829,-165 951,-165 951,-195"/>
<text text-anchor="start" x="837" y="-183" font-family="Helvetica,sans-Serif" font-size="10.00">roo_io/core/multipass</text>
<text text-anchor="middle" x="890" y="-172" font-family="Helvetica,sans-Serif" font-size="10.00">_input_stream.h</text>
</a>
</g>
</g>
<!-- Node6&#45;&gt;Node7 -->
<g id="edge8_Node000006_Node000007" class="edge">
<title>Node6&#45;&gt;Node7</title>
<g id="a_edge8_Node000006_Node000007"><a xlink:title=" ">
<path fill="none" stroke="#63b8ff" d="M282.21,-287.72C342.72,-279.55 446.39,-265.03 535,-250 658.96,-228.98 691.77,-220.32 818.8,-195.24"/>
<polygon fill="#63b8ff" stroke="#63b8ff" points="819.79,-198.61 828.92,-193.24 818.43,-191.74 819.79,-198.61"/>
</a>
</g>
</g>
<!-- Node13 -->
<g id="Node000013" class="node">
<title>Node13</title>
<g id="a_Node000013"><a xlink:href="output__stream_8h.html" target="_top" xlink:title=" ">
<polygon fill="white" stroke="#666666" points="554.5,-195 449.5,-195 449.5,-165 554.5,-165 554.5,-195"/>
<text text-anchor="start" x="457.5" y="-183" font-family="Helvetica,sans-Serif" font-size="10.00">roo_io/core/output</text>
<text text-anchor="middle" x="502" y="-172" font-family="Helvetica,sans-Serif" font-size="10.00">_stream.h</text>
</a>
</g>
</g>
<!-- Node6&#45;&gt;Node13 -->
<g id="edge16_Node000006_Node000013" class="edge">
<title>Node6&#45;&gt;Node13</title>
<g id="a_edge16_Node000006_Node000013"><a xlink:title=" ">
<path fill="none" stroke="#63b8ff" d="M251.37,-285.97C295.21,-267.61 399.34,-223.99 458.67,-199.15"/>
<polygon fill="#63b8ff" stroke="#63b8ff" points="460.27,-202.27 468.14,-195.18 457.56,-195.82 460.27,-202.27"/>
</a>
</g>
</g>
<!-- Node6&#45;&gt;Node15 -->
<g id="edge21_Node000006_Node000015" class="edge">
<title>Node6&#45;&gt;Node15</title>
<g id="a_edge21_Node000006_Node000015"><a xlink:title=" ">
<path fill="none" stroke="#63b8ff" d="M267.95,-285.98C307.57,-276.86 370.59,-262.33 413.77,-252.38"/>
<polygon fill="#63b8ff" stroke="#63b8ff" points="414.8,-255.74 423.76,-250.08 413.23,-248.92 414.8,-255.74"/>
</a>
</g>
</g>
<!-- Node19 -->
<g id="Node000019" class="node">
<title>Node19</title>
<g id="a_Node000019"><a xlink:href="stat_8h.html" target="_top" xlink:title=" ">
<polygon fill="white" stroke="#666666" points="269.5,-189.5 180.5,-189.5 180.5,-170.5 269.5,-170.5 269.5,-189.5"/>
<text text-anchor="middle" x="225" y="-177.5" font-family="Helvetica,sans-Serif" font-size="10.00">roo_io/fs/stat.h</text>
</a>
</g>
</g>
<!-- Node6&#45;&gt;Node19 -->
<g id="edge33_Node000006_Node000019" class="edge">
<title>Node6&#45;&gt;Node19</title>
<g id="a_edge33_Node000006_Node000019"><a xlink:title=" ">
<path fill="none" stroke="#63b8ff" d="M230.55,-285.97C229.58,-267.73 227.3,-224.57 225.99,-199.64"/>
<polygon fill="#63b8ff" stroke="#63b8ff" points="229.48,-199.43 225.46,-189.63 222.49,-199.8 229.48,-199.43"/>
</a>
</g>
</g>
<!-- Node8 -->
<g id="Node000008" class="node">
<title>Node8</title>
<g id="a_Node000008"><a xlink:title=" ">
<polygon fill="#e0e0e0" stroke="#999999" points="966.5,-74 901.5,-74 901.5,-55 966.5,-55 966.5,-74"/>
<text text-anchor="middle" x="934" y="-62" font-family="Helvetica,sans-Serif" font-size="10.00">inttypes.h</text>
</a>
</g>
</g>
<!-- Node7&#45;&gt;Node8 -->
<g id="edge9_Node000007_Node000008" class="edge">
<title>Node7&#45;&gt;Node8</title>
<g id="a_edge9_Node000007_Node000008"><a xlink:title=" ">
<path fill="none" stroke="#63b8ff" d="M910.49,-164.89C921.49,-156.02 933.99,-143.52 940,-129 945.96,-114.61 943.56,-96.87 940.19,-83.8"/>
<polygon fill="#63b8ff" stroke="#63b8ff" points="943.51,-82.68 937.29,-74.1 936.8,-84.68 943.51,-82.68"/>
</a>
</g>
</g>
<!-- Node9 -->
<g id="Node000009" class="node">
<title>Node9</title>
<g id="a_Node000009"><a xlink:href="input__stream_8h.html" target="_top" xlink:title=" ">
<polygon fill="white" stroke="#666666" points="930.5,-129 783.5,-129 783.5,-110 930.5,-110 930.5,-129"/>
<text text-anchor="middle" x="857" y="-117" font-family="Helvetica,sans-Serif" font-size="10.00">roo_io/core/input_stream.h</text>
</a>
</g>
</g>
<!-- Node7&#45;&gt;Node9 -->
<g id="edge10_Node000007_Node000009" class="edge">
<title>Node7&#45;&gt;Node9</title>
<g id="a_edge10_Node000007_Node000009"><a xlink:title=" ">
<path fill="none" stroke="#63b8ff" d="M882.01,-164.84C877.47,-156.78 871.73,-146.62 866.9,-138.06"/>
<polygon fill="#63b8ff" stroke="#63b8ff" points="869.91,-136.26 861.94,-129.27 863.81,-139.7 869.91,-136.26"/>
</a>
</g>
</g>
<!-- Node9&#45;&gt;Node4 -->
<g id="edge15_Node000009_Node000004" class="edge">
<title>Node9&#45;&gt;Node4</title>
<g id="a_edge15_Node000009_Node000004"><a xlink:title=" ">
<path fill="none" stroke="#63b8ff" d="M783.48,-110.96C678.55,-100.21 488.23,-80.7 394.77,-71.11"/>
<polygon fill="#63b8ff" stroke="#63b8ff" points="394.98,-67.62 384.68,-70.08 394.27,-74.58 394.98,-67.62"/>
</a>
</g>
</g>
<!-- Node9&#45;&gt;Node8 -->
<g id="edge11_Node000009_Node000008" class="edge">
<title>Node9&#45;&gt;Node8</title>
<g id="a_edge11_Node000009_Node000008"><a xlink:title=" ">
<path fill="none" stroke="#63b8ff" d="M869.37,-109.98C881.09,-101.92 898.92,-89.65 912.89,-80.03"/>
<polygon fill="#63b8ff" stroke="#63b8ff" points="915.15,-82.72 921.4,-74.17 911.18,-76.96 915.15,-82.72"/>
</a>
</g>
</g>
<!-- Node10 -->
<g id="Node000010" class="node">
<title>Node10</title>
<g id="a_Node000010"><a xlink:href="byte_8h.html" target="_top" xlink:title=" ">
<polygon fill="white" stroke="#666666" points="833.5,-74 726.5,-74 726.5,-55 833.5,-55 833.5,-74"/>
<text text-anchor="middle" x="780" y="-62" font-family="Helvetica,sans-Serif" font-size="10.00">roo_io/base/byte.h</text>
</a>
</g>
</g>
<!-- Node9&#45;&gt;Node10 -->
<g id="edge12_Node000009_Node000010" class="edge">
<title>Node9&#45;&gt;Node10</title>
<g id="a_edge12_Node000009_Node000010"><a xlink:title=" ">
<path fill="none" stroke="#63b8ff" d="M844.63,-109.98C832.91,-101.92 815.08,-89.65 801.11,-80.03"/>
<polygon fill="#63b8ff" stroke="#63b8ff" points="802.82,-76.96 792.6,-74.17 798.85,-82.72 802.82,-76.96"/>
</a>
</g>
</g>
<!-- Node11 -->
<g id="Node000011" class="node">
<title>Node11</title>
<g id="a_Node000011"><a xlink:title=" ">
<polygon fill="#e0e0e0" stroke="#999999" points="884.5,-19 795.5,-19 795.5,0 884.5,0 884.5,-19"/>
<text text-anchor="middle" x="840" y="-7" font-family="Helvetica,sans-Serif" font-size="10.00">roo_backport.h</text>
</a>
</g>
</g>
<!-- Node10&#45;&gt;Node11 -->
<g id="edge13_Node000010_Node000011" class="edge">
<title>Node10&#45;&gt;Node11</title>
<g id="a_edge13_Node000010_Node000011"><a xlink:title=" ">
<path fill="none" stroke="#63b8ff" d="M789.64,-54.98C798.51,-47.15 811.87,-35.34 822.61,-25.86"/>
<polygon fill="#63b8ff" stroke="#63b8ff" points="825.01,-28.41 830.18,-19.17 820.37,-23.17 825.01,-28.41"/>
</a>
</g>
</g>
<!-- Node12 -->
<g id="Node000012" class="node">
<title>Node12</title>
<g id="a_Node000012"><a xlink:title=" ">
<polygon fill="#e0e0e0" stroke="#999999" points="777,-19 663,-19 663,0 777,0 777,-19"/>
<text text-anchor="middle" x="720" y="-7" font-family="Helvetica,sans-Serif" font-size="10.00">roo_backport/byte.h</text>
</a>
</g>
</g>
<!-- Node10&#45;&gt;Node12 -->
<g id="edge14_Node000010_Node000012" class="edge">
<title>Node10&#45;&gt;Node12</title>
<g id="a_edge14_Node000010_Node000012"><a xlink:title=" ">
<path fill="none" stroke="#63b8ff" d="M770.36,-54.98C761.49,-47.15 748.13,-35.34 737.39,-25.86"/>
<polygon fill="#63b8ff" stroke="#63b8ff" points="739.63,-23.17 729.82,-19.17 734.99,-28.41 739.63,-23.17"/>
</a>
</g>
</g>
<!-- Node13&#45;&gt;Node4 -->
<g id="edge19_Node000013_Node000004" class="edge">
<title>Node13&#45;&gt;Node4</title>
<g id="a_edge19_Node000013_Node000004"><a xlink:title=" ">
<path fill="none" stroke="#63b8ff" d="M501.92,-164.91C501.07,-149.43 497.34,-124.82 483,-110 459.93,-86.16 424.34,-75.03 394.44,-69.86"/>
<polygon fill="#63b8ff" stroke="#63b8ff" points="394.96,-66.4 384.54,-68.33 393.89,-73.32 394.96,-66.4"/>
</a>
</g>
</g>
<!-- Node13&#45;&gt;Node10 -->
<g id="edge18_Node000013_Node000010" class="edge">
<title>Node13&#45;&gt;Node10</title>
<g id="a_edge18_Node000013_Node000010"><a xlink:title=" ">
<path fill="none" stroke="#63b8ff" d="M536.37,-164.97C591.09,-142.63 697.18,-99.31 749.42,-77.98"/>
<polygon fill="#63b8ff" stroke="#63b8ff" points="750.89,-81.16 758.83,-74.14 748.25,-74.68 750.89,-81.16"/>
</a>
</g>
</g>
<!-- Node14 -->
<g id="Node000014" class="node">
<title>Node14</title>
<g id="a_Node000014"><a xlink:title=" ">
<polygon fill="#e0e0e0" stroke="#999999" points="473.5,-129 420.5,-129 420.5,-110 473.5,-110 473.5,-129"/>
<text text-anchor="middle" x="447" y="-117" font-family="Helvetica,sans-Serif" font-size="10.00">cstddef</text>
</a>
</g>
</g>
<!-- Node13&#45;&gt;Node14 -->
<g id="edge17_Node000013_Node000014" class="edge">
<title>Node13&#45;&gt;Node14</title>
<g id="a_edge17_Node000013_Node000014"><a xlink:title=" ">
<path fill="none" stroke="#63b8ff" d="M488.69,-164.84C480.7,-156.35 470.52,-145.52 462.22,-136.69"/>
<polygon fill="#63b8ff" stroke="#63b8ff" points="464.64,-134.15 455.24,-129.27 459.54,-138.95 464.64,-134.15"/>
</a>
</g>
</g>
<!-- Node15&#45;&gt;Node2 -->
<g id="edge23_Node000015_Node000002" class="edge">
<title>Node15&#45;&gt;Node2</title>
<g id="a_edge23_Node000015_Node000002"><a xlink:title=" ">
<path fill="none" stroke="#63b8ff" d="M456.41,-230.73C447.83,-215.17 427.86,-182.72 402,-165 312.64,-103.76 184.06,-79.02 120.14,-70.04"/>
<polygon fill="#63b8ff" stroke="#63b8ff" points="120.47,-66.55 110.09,-68.68 119.53,-73.49 120.47,-66.55"/>
</a>
</g>
</g>
<!-- Node15&#45;&gt;Node4 -->
<g id="edge32_Node000015_Node000004" class="edge">
<title>Node15&#45;&gt;Node4</title>
<g id="a_edge32_Node000015_Node000004"><a xlink:title=" ">
<path fill="none" stroke="#63b8ff" d="M525.67,-231.63C591.99,-222.89 686.99,-208.27 698,-195 706.51,-184.74 706.05,-175.63 698,-165 661.42,-116.74 485.91,-85.74 394.95,-72.65"/>
<polygon fill="#63b8ff" stroke="#63b8ff" points="395.21,-69.15 384.82,-71.22 394.23,-76.09 395.21,-69.15"/>
</a>
</g>
</g>
<!-- Node15&#45;&gt;Node7 -->
<g id="edge24_Node000015_Node000007" class="edge">
<title>Node15&#45;&gt;Node7</title>
<g id="a_edge24_Node000015_Node000007"><a xlink:title=" ">
<path fill="none" stroke="#63b8ff" d="M525.73,-232.94C595.59,-225.52 710.34,-212.4 818.82,-195.11"/>
<polygon fill="#63b8ff" stroke="#63b8ff" points="819.65,-198.53 828.96,-193.48 818.54,-191.62 819.65,-198.53"/>
</a>
</g>
</g>
<!-- Node15&#45;&gt;Node13 -->
<g id="edge25_Node000015_Node000013" class="edge">
<title>Node15&#45;&gt;Node13</title>
<g id="a_edge25_Node000015_Node000013"><a xlink:title=" ">
<path fill="none" stroke="#63b8ff" d="M467.05,-230.87C472.1,-223.67 479.52,-213.07 486.24,-203.49"/>
<polygon fill="#63b8ff" stroke="#63b8ff" points="489.23,-205.31 492.11,-195.11 483.5,-201.29 489.23,-205.31"/>
</a>
</g>
</g>
<!-- Node16 -->
<g id="Node000016" class="node">
<title>Node16</title>
<g id="a_Node000016"><a xlink:title=" ">
<polygon fill="#e0e0e0" stroke="#999999" points="810.5,-189.5 745.5,-189.5 745.5,-170.5 810.5,-170.5 810.5,-189.5"/>
<text text-anchor="middle" x="778" y="-177.5" font-family="Helvetica,sans-Serif" font-size="10.00">functional</text>
</a>
</g>
</g>
<!-- Node15&#45;&gt;Node16 -->
<g id="edge22_Node000015_Node000016" class="edge">
<title>Node15&#45;&gt;Node16</title>
<g id="a_edge22_Node000015_Node000016"><a xlink:title=" ">
<path fill="none" stroke="#63b8ff" d="M525.55,-231.2C580.53,-223.57 661.44,-211.02 731,-195 734.42,-194.21 737.96,-193.31 741.49,-192.36"/>
<polygon fill="#63b8ff" stroke="#63b8ff" points="742.64,-195.67 751.31,-189.58 740.74,-188.94 742.64,-195.67"/>
</a>
</g>
</g>
<!-- Node17 -->
<g id="Node000017" class="node">
<title>Node17</title>
<g id="a_Node000017"><a xlink:href="directory__impl_8h.html" target="_top" xlink:title=" ">
<polygon fill="white" stroke="#666666" points="392.5,-195 287.5,-195 287.5,-165 392.5,-165 392.5,-195"/>
<text text-anchor="start" x="295.5" y="-183" font-family="Helvetica,sans-Serif" font-size="10.00">roo_io/fs/directory</text>
<text text-anchor="middle" x="340" y="-172" font-family="Helvetica,sans-Serif" font-size="10.00">_impl.h</text>
</a>
</g>
</g>
<!-- Node15&#45;&gt;Node17 -->
<g id="edge26_Node000015_Node000017" class="edge">
<title>Node15&#45;&gt;Node17</title>
<g id="a_edge26_Node000015_Node000017"><a xlink:title=" ">
<path fill="none" stroke="#63b8ff" d="M443.41,-230.99C426.43,-222.79 400.17,-210.09 378.36,-199.55"/>
<polygon fill="#63b8ff" stroke="#63b8ff" points="379.85,-196.38 369.32,-195.18 376.8,-202.68 379.85,-196.38"/>
</a>
</g>
</g>
<!-- Node18 -->
<g id="Node000018" class="node">
<title>Node18</title>
<g id="a_Node000018"><a xlink:href="file__update__policy_8h.html" target="_top" xlink:title=" ">
<polygon fill="white" stroke="#666666" points="689,-195 573,-195 573,-165 689,-165 689,-195"/>
<text text-anchor="start" x="581" y="-183" font-family="Helvetica,sans-Serif" font-size="10.00">roo_io/fs/file_update</text>
<text text-anchor="middle" x="631" y="-172" font-family="Helvetica,sans-Serif" font-size="10.00">_policy.h</text>
</a>
</g>
</g>
<!-- Node15&#45;&gt;Node18 -->
<g id="edge29_Node000015_Node000018" class="edge">
<title>Node15&#45;&gt;Node18</title>
<g id="a_edge29_Node000015_Node000018"><a xlink:title=" ">
<path fill="none" stroke="#63b8ff" d="M485.72,-230.99C510.4,-222.5 549.05,-209.2 580.28,-198.45"/>
<polygon fill="#63b8ff" stroke="#63b8ff" points="581.81,-201.63 590.13,-195.06 579.53,-195.01 581.81,-201.63"/>
</a>
</g>
</g>
<!-- Node15&#45;&gt;Node19 -->
<g id="edge30_Node000015_Node000019" class="edge">
<title>Node15&#45;&gt;Node19</title>
<g id="a_edge30_Node000015_Node000019"><a xlink:title=" ">
<path fill="none" stroke="#63b8ff" d="M425.39,-230.95C388.68,-222.09 329.78,-207.79 279,-195 275.2,-194.04 271.25,-193.04 267.3,-192.03"/>
<polygon fill="#63b8ff" stroke="#63b8ff" points="268.09,-188.62 257.53,-189.51 266.35,-195.4 268.09,-188.62"/>
</a>
</g>
</g>
<!-- Node17&#45;&gt;Node3 -->
<g id="edge27_Node000017_Node000003" class="edge">
<title>Node17&#45;&gt;Node3</title>
<g id="a_edge27_Node000017_Node000003"><a xlink:title=" ">
<path fill="none" stroke="#63b8ff" d="M288.02,-164.99C250.25,-154.8 199.79,-141.2 164.66,-131.73"/>
<polygon fill="#63b8ff" stroke="#63b8ff" points="165.3,-128.28 154.73,-129.05 163.47,-135.04 165.3,-128.28"/>
</a>
</g>
</g>
<!-- Node17&#45;&gt;Node4 -->
<g id="edge28_Node000017_Node000004" class="edge">
<title>Node17&#45;&gt;Node4</title>
<g id="a_edge28_Node000017_Node000004"><a xlink:title=" ">
<path fill="none" stroke="#63b8ff" d="M340,-164.63C340,-144.21 340,-106.81 340,-84.24"/>
<polygon fill="#63b8ff" stroke="#63b8ff" points="343.5,-84.23 340,-74.23 336.5,-84.23 343.5,-84.23"/>
</a>
</g>
</g>
<!-- Node19&#45;&gt;Node4 -->
<g id="edge31_Node000019_Node000004" class="edge">
<title>Node19&#45;&gt;Node4</title>
<g id="a_edge31_Node000019_Node000004"><a xlink:title=" ">
<path fill="none" stroke="#63b8ff" d="M233.64,-170.47C252.87,-151.49 299.44,-105.53 324.09,-81.21"/>
<polygon fill="#63b8ff" stroke="#63b8ff" points="326.6,-83.65 331.26,-74.13 321.68,-78.66 326.6,-83.65"/>
</a>
</g>
</g>
</g>
</svg>

<g id="navigator" transform="translate(0 0)" fill="#404254">
  <rect fill="#f2f5e9" fill-opacity="0.5" stroke="#606060" stroke-width=".5" x="0" y="0" width="60" height="60"/>
  <use id="zoomplus" xlink:href="#zoomPlus" x="17" y="9" onmousedown="handleZoom(evt,'in')"/>
  <use id="zoomminus" xlink:href="#zoomMin" x="42" y="9" onmousedown="handleZoom(evt,'out')"/>
  <use id="reset" xlink:href="#resetDef" x="30" y="36" onmousedown="handleReset()"/>
   <use id="arrowup" xlink:href="#arrowUp" x="0" y="0" onmousedown="handlePan(0,-1)"/>
  <use id="arrowright" xlink:href="#arrowRight" x="0" y="0" onmousedown="handlePan(1,0)"/>
  <use id="arrowdown" xlink:href="#arrowDown" x="0" y="0" onmousedown="handlePan(0,1)"/>
  <use id="arrowleft" xlink:href="#arrowLeft" x="0" y="0" onmousedown="handlePan(-1,0)"/>
</g>
<svg viewBox="0 0 15 15" width="100%" height="30px" preserveAspectRatio="xMaxYMin meet">
 <g id="arrow_out" transform="scale(0.3 0.3)">
  <a xlink:href="filesystem_8h__incl_org.svg" target="_base">
   <rect id="button" ry="5" rx="5" y="6" x="6" height="38" width="38"
        fill="#f2f5e9" fill-opacity="0.5" stroke="#606060" stroke-width="1.0"/>
   <path id="arrow"
     d="M 11.500037,31.436501 C 11.940474,20.09759 22.043105,11.32322 32.158766,21.979434 L 37.068811,17.246167 C 37.068811,17.246167 37.088388,32 37.088388,32 L 22.160133,31.978069 C 22.160133,31.978069 26.997745,27.140456 26.997745,27.140456 C 18.528582,18.264221 13.291696,25.230495 11.500037,31.436501 z"
     style="fill:#404040;"/>
  </a>
 </g>
</svg>

<style type='text/css'>
<![CDATA[
[data-mouse-over-selected='false'] { opacity: 0.7; }
[data-mouse-over-selected='true']  { opacity: 1.0; }
]]>
</style>
<script type="application/ecmascript"><![CDATA[
document.addEventListener('DOMContentLoaded', (event) => {
  highlightEdges();
  highlightAdjacentNodes();
});
]]></script>
</svg>
